<svg xmlns="http://www.w3.org/2000/svg" style="display: none;">
	
	<symbol id="library" viewBox="0 0 80 80">
		<rect x="4.8" y="21.7" transform="matrix(0.7071 0.7071 -0.7071 0.7071 20.3309 1.4577)" fill="#732778" width="7.2" height="7.2"/>
		<path fill="#214291" d="M1.9,22.8c0-3.2,0-6.3,0-9.5c0-1.4,0.5-1.8,1.8-1.8c3,0,6.1,0,9.1,0c1.5,0,1.9,0.4,1.9,2c0,3,0,6,0,9
			l-6.3-6.3L1.9,22.8z M1.9,63.3c0,1,0,2,0,3c0,1.4,0.5,1.9,1.9,1.9c3,0,5.9,0,8.9,0c1.7,0,2.1-0.4,2.1-2.1v-2.8H1.9z M14.7,60.3V33h0
			c0-1.6,0-3.2,0-4.8l-6.3,6.3l-6.6-6.6c0,6.8,0,25.6,0,32.4H14.7z"/>
		<rect x="21.9" y="21.7" transform="matrix(0.7071 0.7071 -0.7071 0.7071 25.3424 -10.6411)" fill="#732778" width="7.2" height="7.2"/>
		<path fill="#214291" d="M19,22.8c0-3.2,0-6.3,0-9.5c0-1.4,0.5-1.8,1.8-1.8c3,0,6.1,0,9.1,0c1.5,0,1.9,0.4,1.9,2c0,3,0,6,0,9
			l-6.3-6.3L19,22.8z M19,63.3c0,1,0,2,0,3c0,1.4,0.5,1.9,1.9,1.9c3,0,5.9,0,8.9,0c1.7,0,2.1-0.4,2.1-2.1c0-0.9,0-1.8,0-2.8H19z
			 M31.8,60.3V33h0c0-1.6,0-3.2,0-4.8l-6.3,6.3L19,27.9c0,6.8,0,25.6,0,32.4H31.8z"/>
		<rect x="39.2" y="21.7" transform="matrix(0.7071 0.7071 -0.7071 0.7071 30.3966 -22.843)" fill="#732778" width="7.2" height="7.2"/>
		<path fill="#214291" d="M36.2,22.8c0-3.2,0-6.3,0-9.5c0-1.4,0.5-1.8,1.8-1.8c3,0,6.1,0,9.1,0c1.5,0,1.9,0.4,1.9,2c0,3,0,6,0,9
			l-6.3-6.3L36.2,22.8z M36.2,63.3c0,1,0,2,0,3c0,1.4,0.5,1.9,1.9,1.9c3,0,5.9,0,8.9,0c1.7,0,2.1-0.4,2.1-2.1v-2.8H36.2z M49.1,60.3
			V33h0v-4.8l-6.3,6.3l-6.6-6.6c0,6.8,0,25.6,0,32.4H49.1z"/>
		<rect x="56.5" y="22.1" transform="matrix(0.8974 0.4412 -0.4412 0.8974 17.49 -23.8769)" fill="#732778" width="7.2" height="7.2"/>
		<path fill="#214291" d="M53.1,25.4c-1-3-2-6-3.1-9c-0.4-1.3-0.1-1.9,1.2-2.3c2.9-1,5.7-2,8.6-2.9c1.5-0.5,1.9-0.3,2.4,1.2
			c1,2.8,1.9,5.7,2.9,8.5l-8-3.9L53.1,25.4z M66.2,63.8c0.3,0.9,0.6,1.9,1,2.8c0.5,1.3,1.1,1.6,2.4,1.1c2.8-0.9,5.6-1.9,8.4-2.9
			c1.6-0.5,1.8-1,1.3-2.6c-0.3-0.9-0.6-1.7-0.9-2.6L66.2,63.8z M77.4,56.8c-1.6-4.8-7.2-21-8.8-25.8c0,0,0,0,0,0
			c-0.5-1.5-1-3.1-1.6-4.6l-3.9,8l-8.3-4.1C56.9,36.7,63,54.6,65.2,61L77.4,56.8z"/>
	</symbol>
  
	<symbol id="programmes" viewBox="0 0 80 80">
		<path fill-rule="evenodd" clip-rule="evenodd" fill="#A358A1" stroke="#A458A2" stroke-width="0.5" stroke-miterlimit="10" d="
			M57,37.9c0.8-0.7,1.3-1.8,1.3-2.9c0-2.2-1.8-4-4-4c-2.2,0-4,1.8-4,4c0,1.2,0.5,2.2,1.3,2.9c-2.2,0.9-3.8,2.8-4.3,5.2
			c-1.1-0.8-2.3-1.5-3.7-1.9c2.1-1.2,3.5-3.5,3.5-6.1c0-3.9-3.2-7.2-7.2-7.2c-4,0-7.2,3.2-7.2,7.2c0,2.6,1.4,4.9,3.5,6.1
			c-1.3,0.4-2.6,1.1-3.7,1.9c-0.5-2.4-2.1-4.3-4.3-5.2c0.8-0.7,1.3-1.8,1.3-2.9c0-2.2-1.8-4-4-4c-2.2,0-4,1.8-4,4
			c0,1.2,0.5,2.2,1.3,2.9c-2.6,1.1-4.5,3.6-4.5,6.6c0,0.4,0.4,0.8,0.8,0.8c0.4,0,0.8-0.4,0.8-0.8c0-3.1,2.5-5.6,5.6-5.6
			c3,0,5.5,2.4,5.6,5.4c-2,2.1-3.2,5-3.2,8.1c0,0.4,0.4,0.8,0.8,0.8c0.4,0,0.8-0.4,0.8-0.8c0-5.7,4.6-10.3,10.4-10.3
			s10.4,4.6,10.4,10.3c0,0.4,0.4,0.8,0.8,0.8s0.8-0.4,0.8-0.8c0-3.1-1.2-5.9-3.2-8.1c0.1-3,2.5-5.4,5.6-5.4c3.1,0,5.6,2.5,5.6,5.6
			c0,0.4,0.4,0.8,0.8,0.8s0.8-0.4,0.8-0.8C61.5,41.5,59.7,39,57,37.9 M23.3,35c0-1.3,1.1-2.4,2.4-2.4c1.3,0,2.4,1.1,2.4,2.4
			c0,1.3-1.1,2.4-2.4,2.4C24.3,37.4,23.3,36.3,23.3,35 M34.4,35c0-3.1,2.5-5.6,5.6-5.6c3.1,0,5.6,2.5,5.6,5.6c0,3.1-2.5,5.6-5.6,5.6
			C36.9,40.6,34.4,38.1,34.4,35 M52,35c0-1.3,1.1-2.4,2.4-2.4c1.3,0,2.4,1.1,2.4,2.4c0,1.3-1.1,2.4-2.4,2.4C53,37.4,52,36.3,52,35"/>
		<path fill-rule="evenodd" clip-rule="evenodd" fill="#A358A1" stroke="#A458A2" stroke-width="0.5" stroke-miterlimit="10" d="
			M40.1,71.5c-3.4,0-6.7-0.5-10-1.6c-0.1,0-0.2,0-0.3,0c-0.4,0-0.7,0.2-0.8,0.6c-0.2,0.5,0.1,1,0.6,1.1c3.4,1.1,7,1.7,10.5,1.7
			c8.7,0,16.9-3.4,23.1-9.6c6.2-6.2,9.6-14.4,9.6-23.1c0-7.4-2.4-14.4-7.1-20.2l-1-1.2h5.6c0.5,0,0.9-0.4,0.9-0.9
			c0-0.5-0.4-0.9-0.9-0.9h-7.3l-0.2-0.1c-0.3-0.1-0.5-0.1-0.8,0.1l-0.1,0l-0.1,0c-0.4,0.1-0.6,0.4-0.6,0.8l0,8.2
			c0,0.5,0.4,0.9,0.9,0.9c0.5,0,0.9-0.4,0.9-0.9l0-6.6l1.3,1.7C68.7,27,71,33.6,71,40.5c0,8.3-3.2,16-9.1,21.9
			C56.1,68.3,48.3,71.5,40.1,71.5L40.1,71.5z"/>
		<path fill-rule="evenodd" clip-rule="evenodd" fill="#A358A1" stroke="#A458A2" stroke-width="0.5" stroke-miterlimit="10" d="
			M49.9,10.1c0.5,0.2,1-0.1,1.1-0.6c0.1-0.2,0.1-0.5,0-0.7c-0.1-0.2-0.3-0.4-0.5-0.4c-3.4-1.1-7-1.7-10.5-1.7
			c-8.7,0-16.9,3.4-23.1,9.6C11.1,22,7.7,29.6,7.3,37.7c-0.4,8,2,15.8,7,22.1l1,1.2H9.6c-0.5,0-0.9,0.4-0.9,0.9c0,0.5,0.4,0.9,0.9,0.9
			h7.3l0.1,0.1c0.1,0.1,0.3,0.1,0.4,0.1c0.1,0,0.3-0.1,0.4-0.2l0.1,0l0.1,0c0.3-0.1,0.6-0.4,0.6-0.8v-8.2c0-0.5-0.4-0.9-0.9-0.9
			c-0.5,0-0.9,0.4-0.9,0.9v6.6l-1.3-1.7c-4.6-5.9-7-13.3-6.5-20.8c0.4-7.6,3.6-14.7,9-20.1c5.9-5.9,13.6-9.1,21.9-9.1
			C43.3,8.5,46.6,9,49.9,10.1"/>
	</symbol>
	
	<symbol id="stories" viewBox="0 0 80 80">			
		<path fill="#273B85" d="M75.5,22.1c-1.3-1.8-4.1-1.6-5,0.5c-0.8,1.8-1.1,3.6-0.8,5.5c0.1,0.7,0,1.1-0.5,1.7
			c-7.3,9-14.6,17.9-21.8,26.9c-0.5,0.6-0.9,0.7-1.6,0.5c-11.2-3.5-22.5-6.9-33.7-10.3c-0.8-0.2-1.3-0.7-1.6-1.4
			c-0.7-1.7-0.8-3.5-0.4-5.3c0.4-1.8,2.1-2.6,4-2c2,0.6,4,1.2,6.1,1.8c8.1,2.5,16.3,4.9,24.4,7.4c1.5,0.5,2.6,0.1,3.7-1.1
			c9-10.6,18-21.3,27-31.9c1.7-2.1,1-4.3-1.6-4.9c-0.4-0.1-0.8-0.2-1.2-0.3C60.5,6.5,48.7,3.8,36.9,1.1c-1.5-0.3-2.6,0-3.5,1.1
			C28.2,8,23,13.7,17.9,19.4C14.4,23.3,11,27.2,7.5,31C5,33.7,3.9,36.9,4,40.5c0,1.6,0,3.3,0.3,4.9c0.2,1.3,0.9,2.5,1.4,3.7
			c0.2,0.4,0.3,0.6,0,1c-2.5,4.2-2.3,8.6-0.2,12.8c1.1,2.2,3,3.8,5.5,4.6c11.7,3.7,23.4,7.5,35.1,11.2c0.4,0.1,0.8,0.3,1.2,0.4h0.9
			c1.1-0.3,1.8-1.1,2.5-2C58.9,67.2,67,57.4,75,47.6c1.1-1.3,1.3-2.6,0.6-4.2c-1.6-3.8-1.4-7.7-0.1-11.5c0.4-1.3,0.7-2.6,0.2-4
			c-0.3-0.8,0-1.8,0.2-2.7C76.1,24.1,76.2,23.1,75.5,22.1 M52.5,8.6l6.4,21.1l-28.1,7.5l-6.4-21.6L52.5,8.6z M69.3,45.1
			c-4.1,5.1-8.3,10.1-12.4,15.1c-3.2,3.9-6.4,7.8-9.6,11.7c-0.4,0.4-0.6,0.6-1.2,0.4C35,68.8,23.9,65.2,12.9,61.7
			c-0.9-0.3-1.6-0.8-2-1.6c-1.1-2.1-1.3-4.3-0.3-6.5c0.3-0.6,0.6-0.8,1.3-0.5c11.5,3.5,23,7.1,34.5,10.6c1.9,0.6,2.9,0.3,4.2-1.2
			c5.8-7.2,11.6-14.3,17.4-21.5c0.2-0.3,0.5-0.6,0.7-0.9c0.4,1.5,0.7,2.9,1,4.3C69.6,44.5,69.5,44.9,69.3,45.1"/>
		<polygon fill="#752670" points="33.4,32.3 28.8,17.9 49.9,12.7 54.4,27 	"/>
	</symbol>
	
	<symbol id="ambassador" viewBox="0 0 80 80">
		<path fill="#752670" d="M57.2,24.3c0.5,0.6,1.3,1.6,1.3,4.3c0.1,7.1-0.1,14.3-0.1,21.5c0,2.8-1.2,4.8-3.8,5.7
			c-1.8,0.6-2.1,1.8-2.1,3.4c0.1,5.5-0.1,11.1,0.1,16.6c0,2.2-0.5,3.3-3,3.2c-6.5-0.2-13-0.1-19.5,0c-2,0-2.8-0.5-2.9-2.7
			c-0.2-4.3,0.6-8,3-11.7c8-12.6,15.7-25.4,23.5-38.1c0.6-1,2.2-3.4,2.2-3.4S56.7,23.7,57.2,24.3"/>
		<path fill="#752670" d="M26.6,22.3c-3.2,0.1-5.1,2.6-5.2,5.9c-0.1,7.4,0,14.7,0,22.1c0,2.6,1.3,4.4,3.6,5.5c1,0.5,1.9,1.3,3.3,2.4
			c7.2-11.7,14.4-23.5,22-35.9C41.9,22.3,34.3,22.1,26.6,22.3 M31.4,38.1l-5.3-5.3l5.3-5.3l5.3,5.3L31.4,38.1z"/>
		<path fill="#273B85" d="M40.2,1c5.2,0.1,9.2,4.2,9.2,9.4c0,5.2-4.4,9.6-9.6,9.5c-5.2-0.1-9.5-4.5-9.4-9.7C30.5,4.9,34.8,0.9,40.2,1"
			/>
	</symbol>

	<symbol id="events" viewBox="0 0 80 80">
		<rect x="28.8" y="41.6" transform="matrix(0.7071 0.7071 -0.7071 0.7071 47.3195 -12.1014)" fill="#752670" width="19" height="19"/>
		<path fill="#273B85" d="M73.6,17.1c-0.2-0.7-0.4-1.3-0.7-1.8c-1.4-2.4-3.5-3.7-6.4-3.8c-1.2,0-2.4,0-3.6,0l-1.3,0l0,0.9
			c0,1.1,0,2.2,0,3.3c0,0.7,0,1.5-0.3,2.2c-0.8,2.7-3.4,4.5-6.2,4.1c-2.8-0.3-5-2.7-5.1-5.6c0-1.1,0-2.2,0-3.2l0-1.7H29.9v1
			c0,1.1,0,2.3,0,3.4c0,1.2-0.3,2.3-0.8,3.3c-1.2,2.1-3.8,3.2-6.2,2.6c-2.5-0.6-4.3-2.7-4.4-5.1c-0.1-1.2-0.1-2.3-0.1-3.5
			c0-0.5,0-1,0-1.5v-0.4H18c-0.6,0-1.1,0-1.7,0c-0.4,0-0.8,0-1.3,0c-1.1,0-2.1,0-3.1,0.2c-3,0.6-5.2,2.9-5.8,6c0,0.1-0.1,0.2-0.1,0.3
			l0,49.4c0.1,0.3,0.2,0.6,0.3,0.9c0.2,0.7,0.4,1.3,0.7,1.9c1.1,2,2.9,3.3,5.3,3.7c0.1,0,0.2,0.1,0.3,0.1h54.6
			c0.3-0.1,0.6-0.2,0.9-0.3c0.7-0.2,1.3-0.4,1.9-0.7c2-1.1,3.2-2.8,3.7-5.2c0-0.1,0.1-0.2,0.1-0.3l0-49.4
			C73.8,17.6,73.7,17.4,73.6,17.1 M68.9,68.4c-0.9,1.1-2.1,1.2-2.9,1.2c-6.2,0-12.5,0-18.7,0H14.1c-0.8,0-1.7-0.1-2.5-0.7
			c-1.1-0.9-1.2-2-1.2-3c0-7.1,0-14.1,0-21.1V29h59.2l0,36.9C69.6,66.7,69.5,67.6,68.9,68.4 M53.7,11.4c0-0.8,0-1.6,0-2.4
			c-0.1-1.5,0.4-2.4,1.7-2.9h0.9C57.6,6.6,58.1,7.4,58,9c0,1.4,0,2.9,0,4.3c0,0.9,0,1.8,0,2.8c0,1.3-0.9,2.3-2.1,2.3h0
			c-1.1,0-2-0.8-2.1-1.8c-0.1-0.9-0.1-1.9-0.1-2.8l0-1C53.7,12.2,53.7,11.8,53.7,11.4 M22,16.3c-0.1-2.6-0.1-5.3,0-8.1
			c0-1,0.6-1.7,1.7-2.1h0.9c1.2,0.5,1.7,1.3,1.7,2.9c0,1.4,0,2.8,0,4.2c0,0.9,0,1.8,0,2.7c0,0.8-0.3,1.4-0.7,1.9
			c-0.4,0.4-0.9,0.5-1.5,0.5C22.9,18.3,22,17.4,22,16.3"/>
	</symbol>

	<symbol id="newsevents" viewBox="0 0 80 80">
		<rect x="41" y="21.5" transform="matrix(0.7071 0.7071 -0.7071 0.7071 31.8877 -24.6142)" fill="#752670" width="9.4" height="9.4"/>
		<rect x="42.3" y="37.6" transform="matrix(0.7071 0.7071 -0.7071 0.7071 42.1599 -20.2464)" fill="#752670" width="6.3" height="6.3"/>
		<rect x="37.6" y="48.8" transform="matrix(0.7071 0.7071 -0.7071 0.7071 48.6495 -13.6046)" fill="#752670" width="6.3" height="6.3"/>
		<rect x="49.7" y="43.9" transform="matrix(0.7071 0.7071 -0.7071 0.7071 50.2816 -24.2187)" fill="#752670" width="9.4" height="9.4"/>
		<rect x="64.7" y="39.1" transform="matrix(0.7071 0.7071 -0.7071 0.7071 52.5125 -36.7435)" fill="#752670" width="11.9" height="11.9"/>
		<rect x="56.5" y="24.9" transform="matrix(0.7071 0.7071 -0.7071 0.7071 40.1199 -35.1357)" fill="#752670" width="11.9" height="11.9"/>
		<path fill="#273B85" d="M32.1,24c0.9,0.9,1,2.2,1.1,3.4c0.2,2.6,0.4,5.2,0.4,7.8c0.1,3.1,0.2,6.2,0.1,9.4
			c-0.1,3.8-0.4,7.5-0.6,11.3c0,0.5-0.2,1-0.3,1.4c-0.4,1-1.2,1.4-2.2,0.8c-0.6-0.4-1-0.9-1.4-1.5c-0.9-1.3-1.8-2.7-2.7-3.9
			c-2.6-3.3-6.1-4.9-10.2-5.3c-0.8-0.1-1.7-0.1-2.6-0.2V35.2c1.2-0.1,2.4-0.2,3.5-0.4c4.8-0.7,8.4-3.4,10.9-7.5
			c0.3-0.5,0.6-1.1,1-1.5c0.5-0.6,1.1-1.2,1.7-1.8H32.1z"/>
		<path fill="#273B85" d="M1,38.6c0.3-0.6,0.6-1.2,0.9-1.7c0.7-1,1.8-1.7,3-1.8c2.4-0.1,4.8,0,7.2,0V47c0,0,0,0.1-0.1,0.1
			c-2.2,0-4.5,0.1-6.7,0c-2-0.1-3.4-1.3-4.1-3.2c0-0.1-0.1-0.2-0.2-0.4V38.6z"/>
		<path fill="#273B85" d="M4.7,48.5h3.7h3.7c0.1,0.8,0.1,1.5,0.3,2.3c0.2,0.9,0.3,1.8,0.6,2.7c0.2,0.7,0.6,1.4,1.1,1.9
			c0.9,1,1.2,2.1,0.9,3.4c-0.3,1-1.1,1.7-2.1,1.7c-1.1,0-2.1,0-3.2,0c-1.3,0-2.3-0.8-2.6-2.3c-0.5-2.3-1-4.7-1.6-7.1
			C5.3,50.2,5,49.4,4.7,48.5"/>
		<path fill="#273B85" d="M35.2,44.5v-6.8c1.1,0.2,2.2,1.6,2.3,2.9C37.6,42.3,36.8,43.8,35.2,44.5"/>
	</symbol>

	<symbol id="financial-mgmt" viewBox="0 0 80 80">
		<path fill="#752670" d="M62.3,27.8l-9.7,9.7L40.4,25.3L13.6,52.1V38.3l26.8-26.8l12.2,12.2l2.8-2.8L37.7,3.3L1,40l36.7,36.7
			L74.4,40L62.3,27.8z M40.8,60.3c-2.9,0-5.7-1.2-7.3-3.4c-0.8-1-1.4-2.3-1.7-3.9h-1.9v-2.1h1.6v-0.5c0-0.3,0-0.6,0-0.9h-1.7v-2.1h2
			c0.4-1.6,1.1-3,2.1-4.1c1.7-2,4.1-3.1,6.9-3.1c1.8,0,3.4,0.4,4.5,0.9l-0.8,3.4c-0.8-0.3-2-0.7-3.3-0.7c-1.4,0-2.8,0.5-3.7,1.6
			c-0.4,0.5-0.8,1.2-1,2H44v2.1h-7.9c0,0.3,0,0.6,0,0.9v0.5h8v2.1h-7.5c0.2,0.9,0.5,1.6,1,2.1c1,1.1,2.4,1.5,3.9,1.5
			c1.4,0,2.8-0.5,3.4-0.8l0.7,3.3C44.4,59.7,42.7,60.3,40.8,60.3"/>
		<polygon fill="#273B85" points="16.4,39.5 16.4,45.2 40.4,21.3 52.6,33.4 75,11.1 75,30.2 79,30.2 79,4.2 53,4.2 53,8.2 72.1,8.2 
			52.6,27.8 40.4,15.6 "/>
	</symbol>

	<symbol id="prog-support" viewBox="0 0 80 80">	
		<rect x="27.2" y="11.5" transform="matrix(0.7071 0.7071 -0.7071 0.7071 21.5168 -18.141)" fill="#752670" width="10.9" height="10.9"/>	
		<rect x="48.6" y="10.8" transform="matrix(0.7071 0.7071 -0.7071 0.7071 27.3318 -33.4803)" fill="#752670" width="10.9" height="10.9"/>
		<rect x="59" y="21.9" transform="matrix(0.7071 0.7071 -0.7071 0.7071 38.1794 -37.5932)" fill="#752670" width="10.9" height="10.9"/>	
		<rect x="38.3" y="22.5" transform="matrix(0.7071 0.7071 -0.7071 0.7071 32.5534 -22.7128)" fill="#752670" width="10.9" height="10.9"/>
		<path fill="#273B85" d="M1,54.9c0,0.5,0.1,1.1,0.1,1.6c0.1,1.4,0.1,2.9,0.3,4.3c0.4,3.2,0.9,6.4,1.4,9.5c0.1,0.6,0.2,0.9,0.4,1
			c0.2,0.1,0.5,0.1,1,0c4.4-1.2,8.8-2.3,14-3.6c1-0.3,2.1-0.5,3.2-0.4c3,0.4,6,0.9,9,1.5l0.8,0.1c2,0.4,3.8,0.1,5.4-0.7
			c2.4-1.2,5.1-2.5,8.1-3.9c4.3-2,8.6-3.9,12.9-5.9c5.5-2.5,11.1-5,16.6-7.6c2.4-1.1,3.9-2.8,4.6-5.1c0.6-2.1-0.3-3.8-2.4-4.5
			c-2-0.7-4.1-0.5-6.3,0.6l-3.2,1.6c-3.5,1.7-7.1,3.5-10.7,5.2c-1.4,0.7-2.2,1-2.2,2.8c0,1.5-0.7,2.8-2.1,3.8c-1.7,1.2-4,1.5-5.9,0.9
			c-3.8-1.4-7.5-2.8-11.5-4.4c-0.3-0.1-0.6-0.4-0.8-0.7c-0.1-0.1-0.2-0.2-0.2-0.3L33,50.2l0.7-0.1c0.1,0,0.3,0,0.4-0.1
			c0.4-0.1,0.8-0.2,1.1,0c1.4,0.5,2.9,1.1,4.3,1.6c0.9,0.4,1.8,0.7,2.7,1.1c0.4,0.2,0.9,0.3,1.3,0.5c1.2,0.5,2.5,1,3.8,1.3
			c2,0.5,4.4-0.8,4.9-2.7c0.6-2-0.5-3.8-2.8-4.6c-5.3-1.9-11-3.9-17.3-6.1c-0.7-0.2-1.4-0.3-2-0.1c-5.6,1.4-11.1,2.8-16.7,4.3
			c-3.8,1-7.7,2-11.5,3c-0.6,0.2-0.9,0.4-0.9,1c0,1.2,0,2.5,0,3.7l0,1.9L1,54.9z"/>
	</symbol>

	<symbol id="proj-support" viewBox="0 0 80 80">		
		<rect x="42.7" y="13" transform="matrix(0.7071 0.7071 -0.7071 0.7071 31.7541 -30.5461)" fill="#752670" width="20.1" height="20.1"/>
		<path fill="#273B85" d="M1,54.6c0,0.5,0.1,1.1,0.1,1.6c0.1,1.4,0.1,2.9,0.3,4.3c0.4,3.2,0.9,6.4,1.4,9.5c0.1,0.6,0.2,0.9,0.4,1
			c0.2,0.1,0.5,0.1,1,0c4.4-1.2,8.8-2.3,14-3.6c1-0.3,2.1-0.5,3.2-0.4c3,0.4,6,0.9,9,1.5l0.8,0.1c2,0.4,3.8,0.1,5.4-0.7
			c2.4-1.2,5.1-2.5,8.1-3.9c4.3-2,8.6-3.9,12.9-5.9c5.5-2.5,11.1-5,16.6-7.6c2.4-1.1,3.9-2.8,4.6-5.1c0.6-2.1-0.3-3.8-2.4-4.5
			c-2-0.7-4.1-0.5-6.3,0.6l-3.2,1.6c-3.5,1.7-7.1,3.5-10.7,5.2c-1.4,0.7-2.2,1-2.2,2.8c0,1.5-0.7,2.8-2.1,3.8c-1.7,1.2-4,1.5-5.9,0.9
			c-3.8-1.4-7.5-2.8-11.5-4.4c-0.3-0.1-0.6-0.4-0.8-0.7c-0.1-0.1-0.2-0.2-0.2-0.3L33,50l0.7-0.1c0.1,0,0.3,0,0.4-0.1
			c0.4-0.1,0.8-0.2,1.1,0c1.4,0.5,2.9,1.1,4.3,1.6c0.9,0.4,1.8,0.7,2.7,1.1c0.4,0.2,0.9,0.3,1.3,0.5c1.2,0.5,2.5,1,3.8,1.3
			c2,0.5,4.4-0.8,4.9-2.7c0.6-2-0.5-3.8-2.8-4.6c-5.3-1.9-11-3.9-17.3-6.1c-0.7-0.2-1.4-0.3-2-0.1C24.6,42.1,19,43.6,13.5,45
			C9.7,46,5.8,47,2,48c-0.6,0.2-0.9,0.4-0.9,1c0,1.2,0,2.5,0,3.7l0,1.9L1,54.6z"/>
	</symbol>

	<symbol id="proj-support" viewBox="0 0 80 80">		
		<path fill="#273B85" d="M78.7,58.6L67.5,47.4c0,0,0,0,0,0c1.9-2.3,3.1-5.2,3.1-8.5c0-7.3-5.9-13.2-13.2-13.2
			c-7.3,0-13.2,5.9-13.2,13.2c0,7.3,5.9,13.2,13.2,13.2c3.2,0,6.2-1.2,8.5-3.1c0,0,0,0,0,0l11.2,11.2c0.2,0.2,0.5,0.3,0.8,0.3
			c0.3,0,0.6-0.1,0.8-0.3C79.1,59.7,79.1,59,78.7,58.6 M57.4,49.8c-0.4,0-0.7,0-1.1-0.1c-5.5-0.6-9.8-5.2-9.8-10.9
			c0-5.6,4.3-10.3,9.8-10.9c0.4,0,0.7-0.1,1.1-0.1c6,0,10.9,4.9,10.9,10.9S63.4,49.8,57.4,49.8"/>
		<polygon fill="#752670" points="10.8,36.8 23.1,24.4 18.2,19.5 1,36.8 18.2,54 23.1,49.1 	"/>
		<polygon fill="#752670" points="20.6,37 34.2,23.4 30.3,19.5 13,36.7 30.3,54 33.9,50.4 	"/>
		<path fill="#752670" d="M51.7,31.4c-2.2,1.7-3.7,4.4-3.7,7.4c0,2.1,0.7,4,1.9,5.5l7.4-7.4L51.7,31.4z"/>
		<path fill="#752670" d="M42.6,38.9c0-4.5,2-8.6,5.3-11.3l-7.8-7.8L22.8,37l17.2,17.2l6-6C43.9,45.7,42.6,42.5,42.6,38.9"/>
	</symbol>
	
	
	
	<symbol id="callforproposal" viewBox="0 0 80 80">		
		<path fill="#273B85" d="M38.1,78.3c-1.4-0.3-2.4-1.2-3.1-2.4c-0.6-1-1.5-1.2-2.6-1.4c-1.5-0.2-2.2-1.6-1.4-2.8
			c0.4-0.6,1.1-0.8,1.8-0.8c4.3,0,8.7,0,13,0c0.5,0,0.9,0,1.4,0c1.2,0,1.9,0.7,2,1.8c0,1.1-0.6,1.8-1.8,1.9c-1.2,0.1-2.2,0.6-2.8,1.7
			c-0.6,1.1-1.6,1.7-2.8,2H38.1z"/>
		<path fill="#273B85" d="M40.4,0.3c1.1,0.4,1.5,1.2,1.5,2.4c0,2.2,0,4.4,0,6.5c0,1.1-0.5,1.8-1.2,2.1c-1.3,0.4-2.4-0.4-2.4-1.8
			c-0.1-2.4,0-4.9,0-7.3c0-1,0.6-1.5,1.5-1.9H40.4z"/>
		<path fill="#273B85" d="M39.9,69.9c-2.4,0-4.7,0-7.1,0c-1.5,0-2.3-1-2-2.3c0.2-0.9,0.9-1.4,2.1-1.4c2.4,0,4.8,0,7.2,0
			c2.3,0,4.6,0,7,0c1.1,0,1.9,0.5,2.1,1.4c0.3,1.3-0.6,2.3-2,2.3C44.7,70,42.3,69.9,39.9,69.9"/>
		<path fill="#273B85" d="M10.2,37.4c-1.2,0-2.4,0-3.5,0c-1,0-1.6-0.5-1.9-1.3c-0.2-0.8,0.1-1.7,0.8-2.1c0.3-0.2,0.8-0.3,1.2-0.3
			c2.3,0,4.6,0,6.9,0c0.8,0,1.6,0.3,1.9,1.1c0.3,0.7,0.2,1.4-0.3,2c-0.4,0.5-1,0.6-1.6,0.6C12.6,37.4,11.4,37.4,10.2,37.4"/>
		<path fill="#273B85" d="M69.7,37.4c-1.2,0-2.4,0-3.5,0c-0.8,0-1.4-0.3-1.8-1.1c-0.3-0.7-0.3-1.3,0.2-1.9c0.3-0.3,0.7-0.7,1.1-0.7
			c2.7-0.1,5.3-0.1,8,0c0.9,0,1.5,0.9,1.5,1.7c0,0.9-0.6,1.7-1.4,1.8C72.4,37.4,71,37.3,69.7,37.4L69.7,37.4"/>
		<path fill="#273B85" d="M23.5,17.1c-0.1,0.8-0.3,1.4-1,1.7c-0.7,0.3-1.5,0.3-2.1-0.3c-1.8-1.8-3.6-3.5-5.3-5.3
			c-0.7-0.8-0.7-1.9,0.1-2.6c0.7-0.7,1.9-0.6,2.6,0.1c1.5,1.5,2.9,2.9,4.4,4.4c0.3,0.4,0.7,0.7,1,1.1C23.3,16.5,23.4,16.9,23.5,17.1"
			/>
		<path fill="#273B85" d="M58.4,52c0.5,0.3,1.1,0.5,1.4,0.8c1.7,1.6,3.3,3.3,5,5c0.6,0.6,0.8,1.3,0.6,2.1c-0.2,0.7-0.8,1.1-1.5,1.2
			c-0.7,0.1-1.2-0.2-1.7-0.7c-1.2-1.2-2.4-2.4-3.6-3.6c-0.4-0.4-0.9-0.8-1.3-1.3c-0.9-0.9-1-1.9-0.3-2.7C57.3,52.5,57.9,52.3,58.4,52
			"/>
		<path fill="#273B85" d="M14.4,59.2c0.3-0.5,0.5-1,0.8-1.4c1.7-1.7,3.4-3.4,5-5.1c0.7-0.7,1.8-0.7,2.5-0.2c0.8,0.6,1,1.8,0.3,2.6
			c-1,1.2-2.1,2.2-3.2,3.3c-0.8,0.8-1.5,1.5-2.3,2.3c-0.7,0.6-1.8,0.6-2.5-0.2C14.8,60.2,14.6,59.7,14.4,59.2"/>
		<path fill="#273B85" d="M63.4,10.1c1,0.1,1.6,0.4,1.9,1.1c0.3,0.7,0.2,1.4-0.4,2c-0.6,0.7-1.3,1.3-1.9,1.9c-1,1-2.1,2.1-3.1,3.1
			c-0.8,0.8-2,1-2.7,0.3c-0.8-0.8-0.8-1.9,0.1-2.9c1.2-1.3,2.5-2.5,3.7-3.7c0.4-0.4,0.8-0.8,1.2-1.2C62.6,10.5,63.1,10.3,63.4,10.1"
			/>
		<path fill="#752670" d="M56.6,26.3c-1.8-2.9-4.2-5.2-7.2-6.9c-4.1-2.3-8.6-2.9-13.2-2c-5.9,1.2-10.3,4.5-13.2,9.8
			c-2.2,4-2.8,8.4-2,12.9c0.6,3.3,2.3,6.1,4.3,8.6c1.6,2,3.3,4.1,4.8,6.2c1.3,1.8,2.1,3.9,2.4,6.2c0.1,0.4,0,0.6-0.4,0.7
			c-0.6,0.2-1,0.7-1.1,1.3c-0.2,1.3,0.6,2.2,2.1,2.2c2.4,0,4.7,0,7.1,0c2.3,0,4.6,0,6.9,0c0.3,0,0.6,0,0.9-0.1
			c0.8-0.2,1.3-0.8,1.4-1.6c0.1-0.8-0.3-1.6-1.1-1.8c-0.7-0.2-0.6-0.5-0.5-1c0.4-2.6,1.5-5,3.1-7c1.5-2,3.2-3.9,4.7-5.9
			c1.7-2.2,3.1-4.7,3.6-7.4C60,35.4,59.3,30.6,56.6,26.3 M27,32.9c-0.1,0.3-0.3,0.7-0.6,0.9c-0.4,0.4-0.9,0.5-1.4,0.2
			c-0.6-0.3-0.9-0.7-0.9-1.4c0.3-0.8,0.5-1.5,0.8-2.3c1.7-4.1,4.6-7,8.6-8.8c0.6-0.3,1.2-0.4,1.8,0.1c0.4,0.4,0.7,0.9,0.4,1.4
			c-0.2,0.4-0.6,0.9-1.1,1.1c-1.6,0.8-3.1,1.8-4.3,3.1C28.7,28.9,27.7,30.8,27,32.9 M40.5,51.3l-8.7-8.7l8.7-8.7l8.7,8.7L40.5,51.3z"
			/>
	</symbol>
</svg>