<?xml version="1.0" encoding="utf-8"?>
<!-- Generator: Adobe Illustrator 18.0.0, SVG Export Plug-In . SVG Version: 6.00 Build 0)  -->
<!DOCTYPE svg PUBLIC "-//W3C//DTD SVG 1.1//EN" "http://www.w3.org/Graphics/SVG/1.1/DTD/svg11.dtd">
<svg version="1.1" id="Layer_1" xmlns="http://www.w3.org/2000/svg" xmlns:xlink="http://www.w3.org/1999/xlink" x="0px" y="0px"
	 viewBox="0 0 386 128" enable-background="new 0 0 386 128" xml:space="preserve">
<g>
	<defs>
		<rect id="SVGID_1_" x="257.1" y="-299.8" width="356.1" height="256.3"/>
	</defs>
	<clipPath id="SVGID_2_">
		<use xlink:href="#SVGID_1_"  overflow="visible"/>
	</clipPath>
	<path clip-path="url(#SVGID_2_)" fill="#929292" d="M352.5,0.1c-0.2-0.3,0.1-0.3,0.4-0.3c0.3,0,0.3-0.2,0.2-0.3
		C353-0.6,353-0.7,353-0.8c0-0.2-0.1-0.1-0.4-0.5c-0.1-0.1-0.1-0.1-0.3-0.1c-0.2,0-0.3,0.1-0.4,0.2C351.8-1,351.7-1,351.1-1
		c-0.2,0-0.3,0-1.8-1.3c-0.2-0.2-0.3,0.1-0.5-0.1c-0.1-0.1,0-0.2,0-0.3c0-0.2,0-0.3,0-0.8c0-0.2,0.2,0,0.5,0.1
		c0.3,0.2,0.1-0.3,0.4-0.1c0.2,0.1,0.2,0,0.2-0.1c-0.1-0.1-0.2-0.2-0.3-0.1c-0.1,0-0.2,0-0.4-0.1C349-4,348.9-4,348.9-4.2
		c0-0.1-0.1-0.2-0.3-0.3c-0.3-0.1-0.4-0.2-0.4-0.2c0-0.1-0.1-0.1-0.5-0.1c-0.2,0-0.2-0.1-0.2-0.2c0-0.1,0-0.2-0.4-0.5
		c-0.2-0.2,0.1-0.1-0.3-0.6c-0.2-0.2-0.1-0.6,0-0.8c0.1-0.3,0.1-0.3-0.6-1c-0.2-0.2-0.1-0.6,0.1-0.8c0.3-0.4-0.2-0.5,0-0.7
		c0-0.1,0.1-0.1,0.1-0.2c-0.2-0.1-0.4-0.2-0.5-0.2c-0.4-0.2-0.7-0.3-1.3-0.3c-1,0.1,0.2-0.4-1.2-0.3c-0.4,0-0.5,0.2-1.2,0.8
		c-0.6,0.6-0.5,0-1.9,0.9c-0.6,0.4-0.8,0.4-1.2,0.4c-0.4,0-0.5,0.7-0.5,0.9c0,0.2-0.4,0.3-0.8,0c-0.4-0.2-0.5-0.3-0.8-0.3
		c-0.4,0-0.7,0.7-1,0.9c-0.3,0.2-0.3,0.3-0.5,0.7c-0.1,0.4-0.2,0.3-0.1,0.6c0.1,0.3-0.2,0.3-0.5,0.3c-0.3,0,0-0.2-0.4-0.2
		c-0.2,0-0.1-0.2-0.3-0.2s0,0.4,0,0.6c-0.2,0.3,0,0.4,0,0.7c0,0.3-0.1,0.3-0.3,0.2c-0.3,0-0.3-0.1-0.3,0.3c0,0.4-0.8-0.1-1-0.4
		c-0.2-0.2-0.4-0.3-0.7-0.3c-0.5,0,0.1-0.2-0.1-0.4c-0.1-0.1-0.2,0.1-0.4,0.2c-0.2,0.2,0,0.3-0.5,0.5c-0.4,0.1,0.1,0.2-0.1,0.4
		c-0.2,0.2-0.1-0.2-0.4,0c-0.1,0.1,0.2,0.5,0.4,0.8c0.3,0.7-0.3,0.9-0.4,0.7c-0.1-0.2-0.1,0.1-0.4,0c-0.2-0.1,0,0.2,0.1,0.4
		c0.4,0.4-0.3,0.2,0,0.9c0.2,0.5-0.3-0.2-0.3,0.2c0,0.2-0.2,0-0.2,0.3c0,0.3-0.2,0.1-0.3,0.4c0,0.2-0.2,0.1-0.4,0.2
		c-0.2,0.2-0.2-0.2-0.5,0c-0.2,0.1-0.3,0.1-0.6,0.1c-0.3,0-0.3,0.4-0.8,0.4c-0.3,0-0.4,0.2-0.2,0.2c0.2,0,0.3,0.2,0.2,0.5
		c-0.3,0.4,0.4-0.1,0.3,0.7c-0.1,0.5-0.3,0.2-0.2,0.6c0.1,0.5-0.3,0.3-0.2,0.6c0.1,0.3-0.7-0.1-0.6,0.4c0,0.3,0.4,0.1,0.1,1
		c-0.2,0.5,0.1,0.5-0.2,0.8c0,0.1-0.1,0.2-0.2,0.2c0,0,0.1,0.1,0.1,0.1c0.2,0.3,0.4,0.4,0.6,0.4c0.2-0.1,0.2-0.1,0.3-0.1
		c0.2,0.1,0.3,0,0.4,0.1c0.2,0.3-0.1,0.2,0.1,0.4c0.3,0.2,0,0.3,0.3,0.4c0.4,0.1-0.2,0.6,0.4,0.7c0.5,0.1,0.4,0.3,0.3,0.3
		c-0.1,0.1,0,0.1,0.1,0.1c0.1,0,0.1,0,0.2,0.1c0.1,0.1,0.2-0.1,0.4,0c0.2,0.1,0-0.2,0.2-0.2c0.3,0.1,0.1,0.3,0.2,0.3
		c0.3,0,0.1,0.2,0.2,0.2c0.2,0,0.1-0.1,0.3-0.1c0.2,0-0.1,0,0.3-0.4c0.4-0.4,0.6-0.1,0.8-0.3c0.5-0.5,0.3,0.1,0.8-0.3
		c0.1-0.1,0.2-0.1,0.4-0.1c0.3,0,0.1,0.1,0.4,0.1c1.3,0,0.8,0.3,1,0.2c0.2,0,0.2-0.3,0.3-0.2s-0.1,0.3,0.2,0.3c0.2,0,0,0.4,0.3,0.4
		c0.3-0.1,0.2,0.3,0.5,0.8c0.4,0.5,0.4,0.5,0.5,0.3c0,0,0.1-0.1,0.1-0.2c-0.1-0.1-0.2-0.2-0.2-0.2c-0.1-0.1,0-0.2,0-0.4
		c0-0.2-0.1-0.1-0.1-0.3c0-0.3,0.1,0,0.2-0.4c0-0.2-0.1-0.6-0.2-0.8c0-0.3,0-0.2,0.1-0.4c0.1-0.1-0.1-0.3-0.1-0.3
		c-0.1,0-0.1-0.2,0-0.3c0.1-0.1,0.2-0.2,0-0.2c-0.1,0-0.2-0.1-0.3-0.2C335,6,335,5.9,335,5.7c0-0.2-0.1-0.4,0-0.5
		c0.1-0.1,0.1-0.3,0.2-0.5c0.1-0.1,0.1-0.3,0.1-0.4c0-0.1,0.1-0.1,0.2,0c0.1,0.1,0.2,0.1,0.3,0c0.1-0.1,0.2,0,0.4,0l3.2,0.1
		c0.2,0,0.3,0,0.6-0.1c0.5-0.1,0.3,0.2,0.8,0.2c0.2,0,0.2-0.1,0.8-0.1c0.2,0,0.2,0,0.4,0.1c0.4,0.2,0-0.2,0.6-0.1
		c0.3,0.1,0.2,0.5,0.4,0.3c0.1-0.1,0.1-0.2,0.5-0.3c0.2,0-0.1-0.2,0.1-0.3c0.3-0.2,0.1,0.2,0.4,0c0.3-0.2-0.1-0.3,0.2-0.3
		c0.1,0,0.2,0,0.3,0.1c0,0,0,0,0.1,0.1c0.1,0.1,0.5,0.1,1.9,0.4c0.3,0.1,0.5,0.1,0.4,0.3c0,0.2,0.5-0.1,0.7-0.1
		c0.2,0,0.7,0.1,0.7,0.1l0,0c0.1,0,0.1,0,0.1-0.2c0-0.2,0-0.1,0.1-0.2c0.1-0.1,0,0.2,0.2,0.2c0.2,0,0.2-0.1,0.1-0.2
		c-0.3-0.3,0.3-0.2,0.2-0.4c-0.2-0.3,0.1-0.2,0.3-0.2c0.3,0,0-0.2,0.3-0.1c0.3,0.1,0-0.2,0.2-0.3c0.2-0.1,0-0.2,0.2-0.3
		c0.3,0,0.4-0.1,0.5,0.1c0.2,0.3,0.3-0.1,1.1,0c0.3,0,0.5,0.1,0.7-0.3c0.3-0.5,0.6-0.3,0.8-0.7c0.1-0.3,0.3-0.4,0.3-0.6
		C353,0.8,352.6,0.1,352.5,0.1"/>
	<path clip-path="url(#SVGID_2_)" fill="#929292" d="M401.3-27.9c-0.1-0.2-0.7-0.8-0.8-0.9c-0.1-0.1-0.2-0.2-0.4-0.4
		c-0.2-0.2-0.2-0.4,0-0.6c0.1-0.1,0.2-0.2,0.1-0.3c-0.1-0.1-0.7-1.1-0.8-1.2c-0.1-0.2,0-0.2-0.4-0.4c-0.2-0.1-0.1-0.2-0.1-0.4
		c0-1.6,0-1.8,0-2.1c0-0.1-0.2-1.4-0.5-2.9l-2.7,1.2l-2.5-2.1l-5.3-1.3c0,0-15.5,8.8-16.1,9.3c-0.6,0.5-5.8,4.8-5.8,4.8
		s-3.1,0.5-5.5,0.9c0,1.4,0,6,0,6.6c0.1,1.4-0.3,0.3-0.2,1.6c0,0.8,0.1,1.5-0.2,1.6c-0.3,0.1-0.3,0.2-0.4,0.5
		c-0.2,0.5-0.2,0.6-0.1,0.8c0.1,0.3-0.3,0.2-0.3,0.7c0,0.3,0,0.4-0.1,0.5c-0.3,0.3-0.4,0.1-0.7,0.3c-0.1,0.2-0.1,0.2-0.4,0.3
		c-0.2,0.1-0.2,0.2-0.2,0.4c0,0.2,0,0.3-0.2,0.2c-1.7-0.3-1.5-0.3-1.6-0.1c0,0.1,0,0.2-0.6,0.1c-0.3,0-4.5,0.1-4.9,0.1
		c-0.4,0-0.6,0.1-0.7,0.3c-0.5,0.4-0.8,1-1.2,0.9c-0.4-0.1-0.8,0.2-1,0c-0.5-0.3-0.6,0.2-1.1-0.1c-0.1-0.1-0.2,0-0.2,0.1
		c0,0.1,0,0.1,0,0.3c0,0.1,0,0.1-0.1,0.2c-0.2,0.3,0.2,0.3,0,0.7c-0.1,0.2-0.2,0.6-0.1,0.8c0.7,0.7,0.8,0.7,0.6,1
		c-0.1,0.2-0.2,0.6,0,0.8c0.4,0.5,0.1,0.4,0.3,0.6c0.4,0.3,0.4,0.4,0.4,0.5c0,0.1,0,0.2,0.2,0.2c0.3,0,0.4,0,0.5,0.1
		c0,0.1,0.1,0.2,0.4,0.2c0.3,0.1,0.3,0.2,0.3,0.3c0,0.1,0,0.1,0.2,0.2c0.2,0.1,0.3,0.2,0.4,0.1c0.1,0,0.2,0,0.3,0.1
		c0.1,0.1,0,0.3-0.2,0.1c-0.3-0.2-0.1,0.3-0.4,0.1c-0.3-0.2-0.5-0.3-0.5-0.1c0,0.5,0,0.6,0,0.8c0,0.2-0.1,0.3,0,0.3
		c0.2,0.2,0.3,0,0.5,0.1c1.5,1.3,1.6,1.3,1.8,1.3c0.6,0,0.7,0.1,0.8-0.1c0.1-0.1,0.2-0.2,0.4-0.2c0.2,0,0.2,0,0.3,0.1
		C353-0.9,353-1,353-0.8c0,0.1,0,0.2,0.1,0.3c0.1,0.1,0.2,0.3-0.2,0.3c-0.3,0-0.6,0.1-0.4,0.3c0,0,0.5,0.7,1.1,1.6
		c0-0.1,0-0.1,0-0.2c0-0.2,0.2,0,0.2-0.2c0-0.4-0.2-0.1-0.2-0.3c-0.1-0.6-0.2-0.3-0.2-0.5c0-0.2,0.1-0.2,0.2-0.2
		c0.5-0.2,0.6,0,0.9-0.2c0.4-0.3,0.5-0.3,0.6-0.2c0.3,0.5,0.4,0.2,0.6,0.4c0.2,0.4,0.2,0.2,0.4,0.4c0.2,0.2,0.2,0.3,0.3,0.5
		c0.1,0.2,0.2,0.4,0.4,0.3c0.2,0,0.2,0.2,0.3,0.1c0.1,0,0.1,0,0.2,0.1c0,0,0.1,0.2,0.3,0.4c0.1-0.1,0.2,0,0.3-0.2
		c0.1-0.4-0.4-0.2-0.1-0.6c0.2-0.4,0-0.4,0.1-0.7c0.2-0.6-0.1-1.3,0.1-1.4c0.2-0.1,1.1-0.7,1.2-1.1c0.2-0.6,0.4-0.2,0.4-0.7
		c0-1.2,0.1-1.3,0.3-1.3c0.7-0.3,0.4-0.6,1.4-0.8c1.1-0.2,0.9,0,1.4,0c0.6,0,0.5-0.1,0.8-0.1c0.7,0,0.1-0.4,0.9-0.4
		c0.7,0,0.1,0,1.3,0.5c1.8,0.7,1.1,0,1.7,0.4c0.6,0.3,0.6,0.5,0.9,0.9c0.6,0.6,0.3,0.9,0.8,1.3c1,0.7,0.8-0.3,1.5-0.2
		c1,0.1,1.2-0.8,2.1-0.7c1.2,0,0.9,0.5,1.2,0.5c0.5,0.1,0.5,0.5,0.9,0.5c0.7,0.1,0.1,0.3,0.9,0.6c0.6,0.2,1.1,0.4,1.5,0.3
		c0.3-0.1,0.3,0.2,0.7,0.1c0.4-0.1,0.8,0.3,1.1,0c0.8-1.2,0.8-0.7,0.9-0.9c0-0.2,0.1-0.2,0.4-0.3c1.2-0.6,1.3-0.2,1.7-0.4
		c0.4-0.2,0.5-0.2,0.9-0.1c0.4,0.1,1,0.2,1.6,0.1c0.6-0.1,1.5,0.1,2,0.4c0.5,0.3,0.6,0.7,1.1,0.6c0.5-0.1,0.5,0.2,0.8,0.1
		c0.3-0.1,0.2,0.2,0.4,0c0.5-0.4,0.1-0.4,0.3-0.7c0.2-0.2,0.2,0.1,0.4-0.1c0.2-0.1,0.1-0.3,0.4-0.4c0.2,0,0.1-0.4,0.3-0.4
		s0.2-0.2,0.4-0.2c0.3,0,0.1,0.1,0.3,0.1c0.7,0,0.4-0.5,0.9-0.6c0,0,0,0,0,0c0-0.1-0.1-0.1-0.2-0.2c-0.4-0.3-0.2-0.7-0.5-0.6
		c-0.3,0-0.2-0.7-0.3-1c0.5,0,0.9-0.8,1.4-0.5c0-0.2-0.1-0.3-0.1-0.4c-0.1-0.6,0.8-0.1,0.8-0.7c-0.1-0.6,0.4-0.2,0.4-0.7
		c0-0.3,0-0.6,0.3-1c0.3-0.4,0.7-0.8,1.1-1.5c0.3-0.6,0.8-1.1,1.1-1.5c0.3-0.3,3.5-3.7,3.5-3.7s0.3-3.8,0.3-4.4
		c0.1-0.6,0.7-5.9,0.7-6.1c0-0.2,0.1-0.3,0.2-0.4c0.1-0.2,0.6-1,0.6-1.1C401.4-27.8,401.4-27.8,401.3-27.9"/>
	<path clip-path="url(#SVGID_2_)" fill="#929292" d="M360.5-17.8c0-0.6,0-5.2,0-6.6c-1.3,0.2-2.4,0.4-2.7,0.4
		c-0.7,0.1-0.8-0.2-1-0.4s-0.3-0.3,0.1-0.6s0.4-0.5,0.2-0.8c-0.2-0.3-0.2-0.7,0-1c0.1-0.2-0.3-0.4-0.6-0.6c-0.3-0.2-1.3-0.3-1.7-0.4
		c-0.7-0.2-0.6-0.5-0.8-0.7c-0.2-0.2-0.4-0.3-0.7-0.1c-0.2,0.2-0.3-0.3-0.6,0c-0.2,0.1,0-0.3-0.6-0.4c-0.5-0.1-0.2-1-0.9-1
		c-0.5,0-0.2-0.5-1-0.5c-0.4,0-0.2-0.7-0.1-0.9c0.1-0.3-0.1-0.5-0.3-0.7l-20.6-14.3l-5.8-0.1l2.8,30.5c0,0,0.4,0.2,0.6,0.4
		s0.2,0.2,0.2,0.6c0,0.4,0,0.4-0.2,0.9c-0.1,0.4-0.2,0.6-0.4,1.8c0,0,0,0,0,0l-13.3-0.3c0-0.4,0.1-0.8-0.1-0.7
		c-0.2,0.1-0.4,0.3-0.3,0.5c0.1,0.2,0.1,0.3,0,0.4c-0.1,0.1-0.5,0-0.7,0c-0.4,0-0.4,0.3-0.7,0.2c-0.3-0.1-0.5,0.1-1.2-0.1
		c-0.5-0.2-0.6-0.2-0.6-0.2l-1.2,0c0,0.3,0,0.3-0.2,0.5c-0.5,0.3-0.1,0.3-0.4,0.6c-0.2,0.2-0.2,0-0.2-0.1c0-0.1,0-0.2-0.6-0.7
		c-0.6-0.4-0.6-0.5-0.8-0.8c-0.2-0.3-0.2-0.3-0.4-0.3c-0.4,0,0,0.2-0.2,0.2c-0.1,0-0.2,0.1-0.3,0.2c-0.1,0.2-0.4-0.1-0.4,0.1
		c0,0.2-0.1,0.2-0.1,0.3c-0.2,0.4-0.1,0.4-0.2,0.7c-0.2,0.5-0.1,0.6,0,0.7c0.1,0.1,0.1,0.2,0.1,0.3c-0.1,0.2,0,0.3-0.2,0.4
		c-0.3,0.1-0.3,0.4-0.5,0.3c-0.2,0-0.2,0.2-0.4,0c-0.2-0.2,0-0.1-0.3-0.1c0,0-0.1,0-0.1,0c0.1,0.4,0.4,0.4,0.2,0.6
		c-0.1,0.1,0.1,0.2-0.1,0.3c-0.1,0.1-0.1,0.3,0,0.5c0.1,0.3,0.2-0.1,0.3,0.3c0.1,0.4,0.2,0,0.3,0.3c0.1,0.3,0,0.2,0,0.4
		c0.1,0.2-0.2,0.7,0,0.9c0.2,0.2,0.2,0.5,0.1,0.6c-0.2,0.2-0.2,0-0.3,0.1c-0.1,0.1-0.2,0.2,0,0.3c0.5,0.5,0,0.4,0.4,0.5
		c0.5,0.3,0,0.5,0.4,0.6c0.4,0.1,0.3-0.4,0.5-0.2c0.2,0.2,0.3-0.1,0.4,0.2c0,0.2,0.3,0.2,0.2,0.4c-0.1,0.2-0.1,0.2,0,0.2
		c0.1,0.1-0.1,0.1,0,0.2c0.2,0.1,0.4,0.3,0.3,0.4c0,0.2,0.1,0,0.1,0.3c0,0.3-0.2,0-0.2,0.3c0,0.3,0.2,0.1,0.1,0.3
		c0,0.2-0.2,0.1-0.2,0.2c0,0.3,0.1,0.1,0.1,0.4c0,0.3,0.2,0,0.2,0.4c0,0.1,0,0.2,0,0.3c-0.1,0.1-0.1,0-0.2,0.2c0,0.2,0,0.7,0,0.7
		s0.1,0,0.3,0.2c0.2,0.3,0.2,0.3,0.3,0.3c0.1,0,0.3-0.2,0.5-0.4c0.2-0.3,0.2-0.4,0.4-0.4c0.3,0,0.3,0,0.3,0.2
		c0.1,0.2,0.4,0.2,0.3,0.4c-0.1,0.2,0,0.2,0.1,0.2c0.1,0.1,0.2,0.6,0.4,0.3c0.3-0.5,0.5-0.5,0.5-0.6c0-0.2,0.6-0.2,0.6-0.4
		c0-0.2,0.2-0.1,0.4,0c0.7,0.1,0.5,0.3,0.9,0.4C311-0.1,310.9,0,311,0c0.3-0.1,0.3,0.2,0.5,0.1c0.2-0.2-0.1-0.4,0.3-0.5
		c0.5-0.1,0.4-0.3,0.8-0.3c0.3,0,0.4-0.1,0.4-0.2c0-0.3-0.7-0.5,0-0.6c0.5-0.1,1.4,0.4,1.2,0.8c-0.3,0.4,0.5,0.3,0.2,0.7
		c-0.2,0.4,0.6-0.1,0.4,0.9c-0.3,0.9,0,0.8,0.1,0.7c0.3-0.2,0.3,0.8,0.5,0.6c0.2-0.2,0.2,0,0.2,0.1c0,0.2,0.7,0.1,0.5,0.3
		c-0.2,0.2,0.1,0.1,0.1,0.3c-0.1,0.3-0.4-0.1-0.4,0.1c0,0.2-0.2,0.1-0.3,0.3c-0.4,0.6-0.6,0.8-0.3,0.7c0.2,0,0.3,0,0.4-0.1
		c0.1-0.2,0.1-0.2,0.4-0.2c0.3,0,0.5,0.2,0.5,0.4c0,0.6-0.3,0.3-0.1,0.6c0.1,0.2,0,0.6,0.2,0.9c0.2,0.3,0.2,0.3,0.3,0.2
		c0.1-0.1,0.2-0.1,0.2,0.1c0,0.2,0.1,0.2,0.3,0.2c0.2,0,0.3,0.3,0.2,0.6v0c0.1,0,0.1,0,0.2,0c0.1,0,0.5-0.3,0.5-0.4
		c0-0.2,0-0.2,0.2-0.3c0.4-0.4,0.3-0.1,0.4-0.1c0.3,0.1,0.3-0.2,0.5-0.1c0.2,0.1-0.1,0.5,0.2,0.4c0.2,0,0.2,0.2,0.2,0.2
		c-0.1,0-0.1,0.2,0.2,0.2c0.6,0,0.8,0.1,0.9,0.2c0.2,0.2,0.4,0.1,0.3-0.1c-0.1-0.2-0.1-0.5,0.2-0.5c0.3,0,0.2-0.1,0.4-0.1
		c0.2,0,0.3,0.3,0.4,0.1c0.2-0.4-0.2-0.4-0.1-0.5c0.3-0.1-0.1-0.2,0.2-0.5c0.1-0.1,0.1-0.1,0.4,0.2c0.2,0.2,0.6,0.1,0.5-0.1
		c-0.1-0.2-0.1-0.3,0.1-0.3c0.4,0,0.2-0.1,0.4-0.1c0.2,0,0.1,0.2,0.2,0.3c0.1,0.2-0.1,0-0.1,0.3c0,0.4,0.2,0.1,0.2,0.3
		c0,0.4,0,0.5-0.1,0.5c-0.1,0-0.2,0.4,0.5,0.5c0.5,0.1,0.1-0.4,0.5-0.3c0.4,0.1-0.1-0.4,0.4-0.5c0.2-0.1,0.6-0.1,0.7-0.1
		c0.1,0,0.2,0,0.3,0.1c0.1-0.1,0.1-0.2,0.2-0.2c0.2-0.3,0-0.3,0.2-0.8c0.3-0.8-0.1-0.7-0.1-1c0-0.5,0.7-0.1,0.6-0.4
		c-0.1-0.4,0.3-0.2,0.2-0.6c-0.1-0.4,0.1-0.1,0.2-0.6c0.1-0.7-0.5-0.3-0.3-0.7c0.2-0.2,0.1-0.5-0.2-0.5c-0.2,0-0.2-0.2,0.2-0.2
		c0.5,0,0.5-0.4,0.8-0.4c0.3,0,0.4,0,0.6-0.1c0.3-0.1,0.2,0.2,0.5,0c0.2-0.2,0.4-0.1,0.4-0.2c0-0.2,0.3,0,0.3-0.4
		c0-0.3,0.2-0.1,0.2-0.3c0-0.4,0.6,0.3,0.3-0.2c-0.3-0.7,0.4-0.5,0-0.9c-0.2-0.2-0.3-0.5-0.1-0.4c0.3,0.1,0.3-0.2,0.4,0
		c0.1,0.2,0.7,0,0.4-0.7c-0.1-0.3-0.5-0.6-0.4-0.8c0.3-0.2,0.2,0.2,0.4,0s-0.3-0.2,0.1-0.4c0.5-0.2,0.2-0.3,0.5-0.5
		c0.2-0.2,0.3-0.3,0.4-0.2c0.1,0.2-0.5,0.4,0.1,0.4c0.3,0,0.4,0.1,0.7,0.3c0.3,0.2,1,0.7,1,0.4c0-0.4,0-0.3,0.3-0.3
		c0.3,0,0.4,0,0.3-0.2c0-0.3-0.2-0.4,0-0.7c0.1-0.1-0.2-0.5,0-0.6c0.2,0,0.1,0.2,0.3,0.2c0.4,0,0.2,0.2,0.4,0.2c0.3,0,0.6,0,0.5-0.3
		c-0.1-0.3-0.1-0.2,0.1-0.6c0.1-0.4,0.2-0.5,0.5-0.7c0.3-0.2,0.6-0.9,1-0.9c0.4,0,0.4,0.1,0.8,0.3c0.4,0.2,0.8,0.2,0.8,0
		c0-0.2,0.2-0.9,0.5-0.9c0.4,0,0.6,0,1.2-0.4c1.4-1,1.3-0.3,1.9-0.9c0.6-0.6,0.7-0.8,1.2-0.8c1.4-0.1,0.2,0.4,1.2,0.3
		c0.6-0.1,0.9,0.1,1.3,0.3c0.1,0.1,0.3,0.1,0.5,0.2c0-0.1,0-0.2,0-0.3c0-0.1,0-0.1,0.2-0.1c0.5,0.3,0.6-0.2,1.1,0.1
		c0.3,0.2,0.6-0.1,1,0c0.4,0.1,0.8-0.5,1.2-0.9c0.2-0.1,0.4-0.3,0.7-0.3c0.4,0,4.6-0.1,4.9-0.1c0.6,0.1,0.6,0,0.6-0.1
		c0-0.2-0.1-0.2,1.6,0.1c0.3,0,0.2,0,0.2-0.2c0-0.2,0-0.2,0.2-0.4c0.2-0.1,0.2-0.1,0.4-0.3c0.2-0.3,0.3-0.1,0.7-0.3
		c0.1-0.1,0.1-0.2,0.1-0.5c0-0.5,0.4-0.4,0.3-0.7c0-0.2,0-0.3,0.1-0.8c0.1-0.3,0.1-0.4,0.4-0.5c0.3-0.1,0.2-0.9,0.2-1.6
		C360.3-17.5,360.6-16.4,360.5-17.8"/>
	<path clip-path="url(#SVGID_2_)" fill="none" stroke="#FFFFFF" stroke-width="0.189" d="M352.5,0.1c-0.2-0.3,0.1-0.3,0.4-0.3
		c0.3,0,0.3-0.2,0.2-0.3C353-0.6,353-0.7,353-0.8c0-0.2-0.1-0.1-0.4-0.5c-0.1-0.1-0.1-0.1-0.3-0.1c-0.2,0-0.3,0.1-0.4,0.2
		C351.8-1,351.7-1,351.1-1c-0.2,0-0.3,0-1.8-1.3c-0.2-0.2-0.3,0.1-0.5-0.1c-0.1-0.1,0-0.2,0-0.3c0-0.2,0-0.3,0-0.8
		c0-0.2,0.2,0,0.5,0.1c0.3,0.2,0.1-0.3,0.4-0.1c0.2,0.1,0.2,0,0.2-0.1c-0.1-0.1-0.2-0.2-0.3-0.1c-0.1,0-0.2,0-0.4-0.1
		C349-4,348.9-4,348.9-4.2c0-0.1-0.1-0.2-0.3-0.3c-0.3-0.1-0.4-0.2-0.4-0.2c0-0.1-0.1-0.1-0.5-0.1c-0.2,0-0.2-0.1-0.2-0.2
		c0-0.1,0-0.2-0.4-0.5c-0.2-0.2,0.1-0.1-0.3-0.6c-0.2-0.2-0.1-0.6,0-0.8c0.1-0.3,0.1-0.3-0.6-1c-0.2-0.2-0.1-0.6,0.1-0.8
		c0.3-0.4-0.2-0.5,0-0.7c0-0.1,0.1-0.1,0.1-0.2c-0.2-0.1-0.4-0.2-0.5-0.2c-0.4-0.2-0.7-0.3-1.3-0.3c-1,0.1,0.2-0.4-1.2-0.3
		c-0.4,0-0.5,0.2-1.2,0.8c-0.6,0.6-0.5,0-1.9,0.9c-0.6,0.4-0.8,0.4-1.2,0.4c-0.4,0-0.5,0.7-0.5,0.9c0,0.2-0.4,0.3-0.8,0
		c-0.4-0.2-0.5-0.3-0.8-0.3c-0.4,0-0.7,0.7-1,0.9c-0.3,0.2-0.3,0.3-0.5,0.7c-0.1,0.4-0.2,0.3-0.1,0.6c0.1,0.3-0.2,0.3-0.5,0.3
		c-0.3,0,0-0.2-0.4-0.2c-0.2,0-0.1-0.2-0.3-0.2s0,0.4,0,0.6c-0.2,0.3,0,0.4,0,0.7c0,0.3-0.1,0.3-0.3,0.2c-0.3,0-0.3-0.1-0.3,0.3
		c0,0.4-0.8-0.1-1-0.4c-0.2-0.2-0.4-0.3-0.7-0.3c-0.5,0,0.1-0.2-0.1-0.4c-0.1-0.1-0.2,0.1-0.4,0.2c-0.2,0.2,0,0.3-0.5,0.5
		c-0.4,0.1,0.1,0.2-0.1,0.4c-0.2,0.2-0.1-0.2-0.4,0c-0.1,0.1,0.2,0.5,0.4,0.8c0.3,0.7-0.3,0.9-0.4,0.7c-0.1-0.2-0.1,0.1-0.4,0
		c-0.2-0.1,0,0.2,0.1,0.4c0.4,0.4-0.3,0.2,0,0.9c0.2,0.5-0.3-0.2-0.3,0.2c0,0.2-0.2,0-0.2,0.3c0,0.3-0.2,0.1-0.3,0.4
		c0,0.2-0.2,0.1-0.4,0.2c-0.2,0.2-0.2-0.2-0.5,0c-0.2,0.1-0.3,0.1-0.6,0.1c-0.3,0-0.3,0.4-0.8,0.4c-0.3,0-0.4,0.2-0.2,0.2
		c0.2,0,0.3,0.2,0.2,0.5c-0.3,0.4,0.4-0.1,0.3,0.7c-0.1,0.5-0.3,0.2-0.2,0.6c0.1,0.5-0.3,0.3-0.2,0.6c0.1,0.3-0.7-0.1-0.6,0.4
		c0,0.3,0.4,0.1,0.1,1c-0.2,0.5,0.1,0.5-0.2,0.8c0,0.1-0.1,0.2-0.2,0.2c0,0,0.1,0.1,0.1,0.1c0.2,0.3,0.4,0.4,0.6,0.4
		c0.2-0.1,0.2-0.1,0.3-0.1c0.2,0.1,0.3,0,0.4,0.1c0.2,0.3-0.1,0.2,0.1,0.4c0.3,0.2,0,0.3,0.3,0.4c0.4,0.1-0.2,0.6,0.4,0.7
		c0.5,0.1,0.4,0.3,0.3,0.3c-0.1,0.1,0,0.1,0.1,0.1c0.1,0,0.1,0,0.2,0.1c0.1,0.1,0.2-0.1,0.4,0c0.2,0.1,0-0.2,0.2-0.2
		c0.3,0.1,0.1,0.3,0.2,0.3c0.3,0,0.1,0.2,0.2,0.2c0.2,0,0.1-0.1,0.3-0.1c0.2,0-0.1,0,0.3-0.4c0.4-0.4,0.6-0.1,0.8-0.3
		c0.5-0.5,0.3,0.1,0.8-0.3c0.1-0.1,0.2-0.1,0.4-0.1c0.3,0,0.1,0.1,0.4,0.1c1.3,0,0.8,0.3,1,0.2c0.2,0,0.2-0.3,0.3-0.2
		s-0.1,0.3,0.2,0.3c0.2,0,0,0.4,0.3,0.4c0.3-0.1,0.2,0.3,0.5,0.8c0.4,0.5,0.4,0.5,0.5,0.3c0,0,0.1-0.1,0.1-0.2
		c-0.1-0.1-0.2-0.2-0.2-0.2c-0.1-0.1,0-0.2,0-0.4c0-0.2-0.1-0.1-0.1-0.3c0-0.3,0.1,0,0.2-0.4c0-0.2-0.1-0.6-0.2-0.8
		c0-0.3,0-0.2,0.1-0.4c0.1-0.1-0.1-0.3-0.1-0.3c-0.1,0-0.1-0.2,0-0.3c0.1-0.1,0.2-0.2,0-0.2c-0.1,0-0.2-0.1-0.3-0.2
		C335,6,335,5.9,335,5.7c0-0.2-0.1-0.4,0-0.5c0.1-0.1,0.1-0.3,0.2-0.5c0.1-0.1,0.1-0.3,0.1-0.4c0-0.1,0.1-0.1,0.2,0
		c0.1,0.1,0.2,0.1,0.3,0c0.1-0.1,0.2,0,0.4,0l3.2,0.1c0.2,0,0.3,0,0.6-0.1c0.5-0.1,0.3,0.2,0.8,0.2c0.2,0,0.2-0.1,0.8-0.1
		c0.2,0,0.2,0,0.4,0.1c0.4,0.2,0-0.2,0.6-0.1c0.3,0.1,0.2,0.5,0.4,0.3c0.1-0.1,0.1-0.2,0.5-0.3c0.2,0-0.1-0.2,0.1-0.3
		c0.3-0.2,0.1,0.2,0.4,0c0.3-0.2-0.1-0.3,0.2-0.3c0.1,0,0.2,0,0.3,0.1c0,0,0,0,0.1,0.1c0.1,0.1,0.5,0.1,1.9,0.4
		c0.3,0.1,0.5,0.1,0.4,0.3c0,0.2,0.5-0.1,0.7-0.1c0.2,0,0.7,0.1,0.7,0.1l0,0c0.1,0,0.1,0,0.1-0.2c0-0.2,0-0.1,0.1-0.2
		c0.1-0.1,0,0.2,0.2,0.2c0.2,0,0.2-0.1,0.1-0.2c-0.3-0.3,0.3-0.2,0.2-0.4c-0.2-0.3,0.1-0.2,0.3-0.2c0.3,0,0-0.2,0.3-0.1
		c0.3,0.1,0-0.2,0.2-0.3c0.2-0.1,0-0.2,0.2-0.3c0.3,0,0.4-0.1,0.5,0.1c0.2,0.3,0.3-0.1,1.1,0c0.3,0,0.5,0.1,0.7-0.3
		c0.3-0.5,0.6-0.3,0.8-0.7c0.1-0.3,0.3-0.4,0.3-0.6C353,0.8,352.6,0.1,352.5,0.1z"/>
	<path clip-path="url(#SVGID_2_)" fill="none" stroke="#FFFFFF" stroke-width="0.189" d="M401.3-27.9c-0.1-0.2-0.7-0.8-0.8-0.9
		c-0.1-0.1-0.2-0.2-0.4-0.4c-0.2-0.2-0.2-0.4,0-0.6c0.1-0.1,0.2-0.2,0.1-0.3c-0.1-0.1-0.7-1.1-0.8-1.2c-0.1-0.2,0-0.2-0.4-0.4
		c-0.2-0.1-0.1-0.2-0.1-0.4c0-1.6,0-1.8,0-2.1c0-0.1-0.2-1.4-0.5-2.9l-2.7,1.2l-2.5-2.1l-5.3-1.3c0,0-15.5,8.8-16.1,9.3
		c-0.6,0.5-5.8,4.8-5.8,4.8s-3.1,0.5-5.5,0.9c0,1.4,0,6,0,6.6c0.1,1.4-0.3,0.3-0.2,1.6c0,0.8,0.1,1.5-0.2,1.6
		c-0.3,0.1-0.3,0.2-0.4,0.5c-0.2,0.5-0.2,0.6-0.1,0.8c0.1,0.3-0.3,0.2-0.3,0.7c0,0.3,0,0.4-0.1,0.5c-0.3,0.3-0.4,0.1-0.7,0.3
		c-0.1,0.2-0.1,0.2-0.4,0.3c-0.2,0.1-0.2,0.2-0.2,0.4c0,0.2,0,0.3-0.2,0.2c-1.7-0.3-1.5-0.3-1.6-0.1c0,0.1,0,0.2-0.6,0.1
		c-0.3,0-4.5,0.1-4.9,0.1c-0.4,0-0.6,0.1-0.7,0.3c-0.5,0.4-0.8,1-1.2,0.9c-0.4-0.1-0.8,0.2-1,0c-0.5-0.3-0.6,0.2-1.1-0.1
		c-0.1-0.1-0.2,0-0.2,0.1c0,0.1,0,0.1,0,0.3c0,0.1,0,0.1-0.1,0.2c-0.2,0.3,0.2,0.3,0,0.7c-0.1,0.2-0.2,0.6-0.1,0.8
		c0.7,0.7,0.8,0.7,0.6,1c-0.1,0.2-0.2,0.6,0,0.8c0.4,0.5,0.1,0.4,0.3,0.6c0.4,0.3,0.4,0.4,0.4,0.5c0,0.1,0,0.2,0.2,0.2
		c0.3,0,0.4,0,0.5,0.1c0,0.1,0.1,0.2,0.4,0.2c0.3,0.1,0.3,0.2,0.3,0.3c0,0.1,0,0.1,0.2,0.2c0.2,0.1,0.3,0.2,0.4,0.1
		c0.1,0,0.2,0,0.3,0.1c0.1,0.1,0,0.3-0.2,0.1c-0.3-0.2-0.1,0.3-0.4,0.1c-0.3-0.2-0.5-0.3-0.5-0.1c0,0.5,0,0.6,0,0.8
		c0,0.2-0.1,0.3,0,0.3c0.2,0.2,0.3,0,0.5,0.1c1.5,1.3,1.6,1.3,1.8,1.3c0.6,0,0.7,0.1,0.8-0.1c0.1-0.1,0.2-0.2,0.4-0.2
		c0.2,0,0.2,0,0.3,0.1C353-0.9,353-1,353-0.8c0,0.1,0,0.2,0.1,0.3c0.1,0.1,0.2,0.3-0.2,0.3c-0.3,0-0.6,0.1-0.4,0.3
		c0,0,0.5,0.7,1.1,1.6c0-0.1,0-0.1,0-0.2c0-0.2,0.2,0,0.2-0.2c0-0.4-0.2-0.1-0.2-0.3c-0.1-0.6-0.2-0.3-0.2-0.5
		c0-0.2,0.1-0.2,0.2-0.2c0.5-0.2,0.6,0,0.9-0.2c0.4-0.3,0.5-0.3,0.6-0.2c0.3,0.5,0.4,0.2,0.6,0.4c0.2,0.4,0.2,0.2,0.4,0.4
		c0.2,0.2,0.2,0.3,0.3,0.5c0.1,0.2,0.2,0.4,0.4,0.3c0.2,0,0.2,0.2,0.3,0.1c0.1,0,0.1,0,0.2,0.1c0,0,0.1,0.2,0.3,0.4
		c0.1-0.1,0.2,0,0.3-0.2c0.1-0.4-0.4-0.2-0.1-0.6c0.2-0.4,0-0.4,0.1-0.7c0.2-0.6-0.1-1.3,0.1-1.4c0.2-0.1,1.1-0.7,1.2-1.1
		c0.2-0.6,0.4-0.2,0.4-0.7c0-1.2,0.1-1.3,0.3-1.3c0.7-0.3,0.4-0.6,1.4-0.8c1.1-0.2,0.9,0,1.4,0c0.6,0,0.5-0.1,0.8-0.1
		c0.7,0,0.1-0.4,0.9-0.4c0.7,0,0.1,0,1.3,0.5c1.8,0.7,1.1,0,1.7,0.4c0.6,0.3,0.6,0.5,0.9,0.9c0.6,0.6,0.3,0.9,0.8,1.3
		c1,0.7,0.8-0.3,1.5-0.2c1,0.1,1.2-0.8,2.1-0.7c1.2,0,0.9,0.5,1.2,0.5c0.5,0.1,0.5,0.5,0.9,0.5c0.7,0.1,0.1,0.3,0.9,0.6
		c0.6,0.2,1.1,0.4,1.5,0.3c0.3-0.1,0.3,0.2,0.7,0.1c0.4-0.1,0.8,0.3,1.1,0c0.8-1.2,0.8-0.7,0.9-0.9c0-0.2,0.1-0.2,0.4-0.3
		c1.2-0.6,1.3-0.2,1.7-0.4c0.4-0.2,0.5-0.2,0.9-0.1c0.4,0.1,1,0.2,1.6,0.1c0.6-0.1,1.5,0.1,2,0.4c0.5,0.3,0.6,0.7,1.1,0.6
		c0.5-0.1,0.5,0.2,0.8,0.1c0.3-0.1,0.2,0.2,0.4,0c0.5-0.4,0.1-0.4,0.3-0.7c0.2-0.2,0.2,0.1,0.4-0.1c0.2-0.1,0.1-0.3,0.4-0.4
		c0.2,0,0.1-0.4,0.3-0.4s0.2-0.2,0.4-0.2c0.3,0,0.1,0.1,0.3,0.1c0.7,0,0.4-0.5,0.9-0.6c0,0,0,0,0,0c0-0.1-0.1-0.1-0.2-0.2
		c-0.4-0.3-0.2-0.7-0.5-0.6c-0.3,0-0.2-0.7-0.3-1c0.5,0,0.9-0.8,1.4-0.5c0-0.2-0.1-0.3-0.1-0.4c-0.1-0.6,0.8-0.1,0.8-0.7
		c-0.1-0.6,0.4-0.2,0.4-0.7c0-0.3,0-0.6,0.3-1c0.3-0.4,0.7-0.8,1.1-1.5c0.3-0.6,0.8-1.1,1.1-1.5c0.3-0.3,3.5-3.7,3.5-3.7
		s0.3-3.8,0.3-4.4c0.1-0.6,0.7-5.9,0.7-6.1c0-0.2,0.1-0.3,0.2-0.4c0.1-0.2,0.6-1,0.6-1.1C401.4-27.8,401.4-27.8,401.3-27.9z"/>
	<path clip-path="url(#SVGID_2_)" fill="none" stroke="#FFFFFF" stroke-width="0.189" d="M360.5-17.8c0-0.6,0-5.2,0-6.6
		c-1.3,0.2-2.4,0.4-2.7,0.4c-0.7,0.1-0.8-0.2-1-0.4s-0.3-0.3,0.1-0.6s0.4-0.5,0.2-0.8c-0.2-0.3-0.2-0.7,0-1c0.1-0.2-0.3-0.4-0.6-0.6
		c-0.3-0.2-1.3-0.3-1.7-0.4c-0.7-0.2-0.6-0.5-0.8-0.7c-0.2-0.2-0.4-0.3-0.7-0.1c-0.2,0.2-0.3-0.3-0.6,0c-0.2,0.1,0-0.3-0.6-0.4
		c-0.5-0.1-0.2-1-0.9-1c-0.5,0-0.2-0.5-1-0.5c-0.4,0-0.2-0.7-0.1-0.9c0.1-0.3-0.1-0.5-0.3-0.7l-20.6-14.3l-5.8-0.1l2.8,30.5
		c0,0,0.4,0.2,0.6,0.4s0.2,0.2,0.2,0.6c0,0.4,0,0.4-0.2,0.9c-0.1,0.4-0.2,0.6-0.4,1.8c0,0,0,0,0,0l-13.3-0.3c0-0.4,0.1-0.8-0.1-0.7
		c-0.2,0.1-0.4,0.3-0.3,0.5c0.1,0.2,0.1,0.3,0,0.4c-0.1,0.1-0.5,0-0.7,0c-0.4,0-0.4,0.3-0.7,0.2c-0.3-0.1-0.5,0.1-1.2-0.1
		c-0.5-0.2-0.6-0.2-0.6-0.2l-1.2,0c0,0.3,0,0.3-0.2,0.5c-0.5,0.3-0.1,0.3-0.4,0.6c-0.2,0.2-0.2,0-0.2-0.1c0-0.1,0-0.2-0.6-0.7
		c-0.6-0.4-0.6-0.5-0.8-0.8c-0.2-0.3-0.2-0.3-0.4-0.3c-0.4,0,0,0.2-0.2,0.2c-0.1,0-0.2,0.1-0.3,0.2c-0.1,0.2-0.4-0.1-0.4,0.1
		c0,0.2-0.1,0.2-0.1,0.3c-0.2,0.4-0.1,0.4-0.2,0.7c-0.2,0.5-0.1,0.6,0,0.7c0.1,0.1,0.1,0.2,0.1,0.3c-0.1,0.2,0,0.3-0.2,0.4
		c-0.3,0.1-0.3,0.4-0.5,0.3c-0.2,0-0.2,0.2-0.4,0c-0.2-0.2,0-0.1-0.3-0.1c0,0-0.1,0-0.1,0c0.1,0.4,0.4,0.4,0.2,0.6
		c-0.1,0.1,0.1,0.2-0.1,0.3c-0.1,0.1-0.1,0.3,0,0.5c0.1,0.3,0.2-0.1,0.3,0.3c0.1,0.4,0.2,0,0.3,0.3c0.1,0.3,0,0.2,0,0.4
		c0.1,0.2-0.2,0.7,0,0.9c0.2,0.2,0.2,0.5,0.1,0.6c-0.2,0.2-0.2,0-0.3,0.1c-0.1,0.1-0.2,0.2,0,0.3c0.5,0.5,0,0.4,0.4,0.5
		c0.5,0.3,0,0.5,0.4,0.6c0.4,0.1,0.3-0.4,0.5-0.2c0.2,0.2,0.3-0.1,0.4,0.2c0,0.2,0.3,0.2,0.2,0.4c-0.1,0.2-0.1,0.2,0,0.2
		c0.1,0.1-0.1,0.1,0,0.2c0.2,0.1,0.4,0.3,0.3,0.4c0,0.2,0.1,0,0.1,0.3c0,0.3-0.2,0-0.2,0.3c0,0.3,0.2,0.1,0.1,0.3
		c0,0.2-0.2,0.1-0.2,0.2c0,0.3,0.1,0.1,0.1,0.4c0,0.3,0.2,0,0.2,0.4c0,0.1,0,0.2,0,0.3c-0.1,0.1-0.1,0-0.2,0.2c0,0.2,0,0.7,0,0.7
		s0.1,0,0.3,0.2c0.2,0.3,0.2,0.3,0.3,0.3c0.1,0,0.3-0.2,0.5-0.4c0.2-0.3,0.2-0.4,0.4-0.4c0.3,0,0.3,0,0.3,0.2
		c0.1,0.2,0.4,0.2,0.3,0.4c-0.1,0.2,0,0.2,0.1,0.2c0.1,0.1,0.2,0.6,0.4,0.3c0.3-0.5,0.5-0.5,0.5-0.6c0-0.2,0.6-0.2,0.6-0.4
		c0-0.2,0.2-0.1,0.4,0c0.7,0.1,0.5,0.3,0.9,0.4C311-0.1,310.9,0,311,0c0.3-0.1,0.3,0.2,0.5,0.1c0.2-0.2-0.1-0.4,0.3-0.5
		c0.5-0.1,0.4-0.3,0.8-0.3c0.3,0,0.4-0.1,0.4-0.2c0-0.3-0.7-0.5,0-0.6c0.5-0.1,1.4,0.4,1.2,0.8c-0.3,0.4,0.5,0.3,0.2,0.7
		c-0.2,0.4,0.6-0.1,0.4,0.9c-0.3,0.9,0,0.8,0.1,0.7c0.3-0.2,0.3,0.8,0.5,0.6c0.2-0.2,0.2,0,0.2,0.1c0,0.2,0.7,0.1,0.5,0.3
		c-0.2,0.2,0.1,0.1,0.1,0.3c-0.1,0.3-0.4-0.1-0.4,0.1c0,0.2-0.2,0.1-0.3,0.3c-0.4,0.6-0.6,0.8-0.3,0.7c0.2,0,0.3,0,0.4-0.1
		c0.1-0.2,0.1-0.2,0.4-0.2c0.3,0,0.5,0.2,0.5,0.4c0,0.6-0.3,0.3-0.1,0.6c0.1,0.2,0,0.6,0.2,0.9c0.2,0.3,0.2,0.3,0.3,0.2
		c0.1-0.1,0.2-0.1,0.2,0.1c0,0.2,0.1,0.2,0.3,0.2c0.2,0,0.3,0.3,0.2,0.6v0c0.1,0,0.1,0,0.2,0c0.1,0,0.5-0.3,0.5-0.4
		c0-0.2,0-0.2,0.2-0.3c0.4-0.4,0.3-0.1,0.4-0.1c0.3,0.1,0.3-0.2,0.5-0.1c0.2,0.1-0.1,0.5,0.2,0.4c0.2,0,0.2,0.2,0.2,0.2
		c-0.1,0-0.1,0.2,0.2,0.2c0.6,0,0.8,0.1,0.9,0.2c0.2,0.2,0.4,0.1,0.3-0.1c-0.1-0.2-0.1-0.5,0.2-0.5c0.3,0,0.2-0.1,0.4-0.1
		c0.2,0,0.3,0.3,0.4,0.1c0.2-0.4-0.2-0.4-0.1-0.5c0.3-0.1-0.1-0.2,0.2-0.5c0.1-0.1,0.1-0.1,0.4,0.2c0.2,0.2,0.6,0.1,0.5-0.1
		c-0.1-0.2-0.1-0.3,0.1-0.3c0.4,0,0.2-0.1,0.4-0.1c0.2,0,0.1,0.2,0.2,0.3c0.1,0.2-0.1,0-0.1,0.3c0,0.4,0.2,0.1,0.2,0.3
		c0,0.4,0,0.5-0.1,0.5c-0.1,0-0.2,0.4,0.5,0.5c0.5,0.1,0.1-0.4,0.5-0.3c0.4,0.1-0.1-0.4,0.4-0.5c0.2-0.1,0.6-0.1,0.7-0.1
		c0.1,0,0.2,0,0.3,0.1c0.1-0.1,0.1-0.2,0.2-0.2c0.2-0.3,0-0.3,0.2-0.8c0.3-0.8-0.1-0.7-0.1-1c0-0.5,0.7-0.1,0.6-0.4
		c-0.1-0.4,0.3-0.2,0.2-0.6c-0.1-0.4,0.1-0.1,0.2-0.6c0.1-0.7-0.5-0.3-0.3-0.7c0.2-0.2,0.1-0.5-0.2-0.5c-0.2,0-0.2-0.2,0.2-0.2
		c0.5,0,0.5-0.4,0.8-0.4c0.3,0,0.4,0,0.6-0.1c0.3-0.1,0.2,0.2,0.5,0c0.2-0.2,0.4-0.1,0.4-0.2c0-0.2,0.3,0,0.3-0.4
		c0-0.3,0.2-0.1,0.2-0.3c0-0.4,0.6,0.3,0.3-0.2c-0.3-0.7,0.4-0.5,0-0.9c-0.2-0.2-0.3-0.5-0.1-0.4c0.3,0.1,0.3-0.2,0.4,0
		c0.1,0.2,0.7,0,0.4-0.7c-0.1-0.3-0.5-0.6-0.4-0.8c0.3-0.2,0.2,0.2,0.4,0s-0.3-0.2,0.1-0.4c0.5-0.2,0.2-0.3,0.5-0.5
		c0.2-0.2,0.3-0.3,0.4-0.2c0.1,0.2-0.5,0.4,0.1,0.4c0.3,0,0.4,0.1,0.7,0.3c0.3,0.2,1,0.7,1,0.4c0-0.4,0-0.3,0.3-0.3
		c0.3,0,0.4,0,0.3-0.2c0-0.3-0.2-0.4,0-0.7c0.1-0.1-0.2-0.5,0-0.6c0.2,0,0.1,0.2,0.3,0.2c0.4,0,0.2,0.2,0.4,0.2c0.3,0,0.6,0,0.5-0.3
		c-0.1-0.3-0.1-0.2,0.1-0.6c0.1-0.4,0.2-0.5,0.5-0.7c0.3-0.2,0.6-0.9,1-0.9c0.4,0,0.4,0.1,0.8,0.3c0.4,0.2,0.8,0.2,0.8,0
		c0-0.2,0.2-0.9,0.5-0.9c0.4,0,0.6,0,1.2-0.4c1.4-1,1.3-0.3,1.9-0.9c0.6-0.6,0.7-0.8,1.2-0.8c1.4-0.1,0.2,0.4,1.2,0.3
		c0.6-0.1,0.9,0.1,1.3,0.3c0.1,0.1,0.3,0.1,0.5,0.2c0-0.1,0-0.2,0-0.3c0-0.1,0-0.1,0.2-0.1c0.5,0.3,0.6-0.2,1.1,0.1
		c0.3,0.2,0.6-0.1,1,0c0.4,0.1,0.8-0.5,1.2-0.9c0.2-0.1,0.4-0.3,0.7-0.3c0.4,0,4.6-0.1,4.9-0.1c0.6,0.1,0.6,0,0.6-0.1
		c0-0.2-0.1-0.2,1.6,0.1c0.3,0,0.2,0,0.2-0.2c0-0.2,0-0.2,0.2-0.4c0.2-0.1,0.2-0.1,0.4-0.3c0.2-0.3,0.3-0.1,0.7-0.3
		c0.1-0.1,0.1-0.2,0.1-0.5c0-0.5,0.4-0.4,0.3-0.7c0-0.2,0-0.3,0.1-0.8c0.1-0.3,0.1-0.4,0.4-0.5c0.3-0.1,0.2-0.9,0.2-1.6
		C360.3-17.5,360.6-16.4,360.5-17.8z"/>
</g>
<rect x="0" y="0" fill="#FFFFFF" width="386.8" height="127"/>
<rect x="7.4" y="7.3" fill="#2F499A" width="170.3" height="113.4"/>
<polygon fill="#F5EA5C" points="91.3,20.9 89.9,25.1 85.4,25.1 89.2,27.7 87.8,31.9 91.3,29.3 95.1,31.9 93.7,27.7 97.2,25.1 
	92.7,25.1 "/>
<polygon fill="#F5EA5C" points="72.8,25.8 71.4,30 66.9,30 70.6,32.8 69.2,37.1 72.8,34.3 76.3,37.1 75.1,32.8 78.6,30 74.2,30 "/>
<polygon fill="#F5EA5C" points="59.1,39.4 57.7,43.6 53.3,43.6 57,46.5 55.6,50.7 59.1,47.9 62.9,50.7 61.5,46.5 65,43.6 60.5,43.6 
	"/>
<polygon fill="#F5EA5C" points="54.2,58 52.8,62.2 48.3,62.2 52.1,65 50.7,69.2 54.2,66.4 57.7,69.2 56.3,65 60.1,62.2 55.6,62.2 
	"/>
<polygon fill="#F5EA5C" points="59.1,76.5 57.7,81 53.3,81 57,83.5 55.6,87.8 59.1,85.2 62.9,87.8 61.5,83.5 65,81 60.5,81 "/>
<polygon fill="#F5EA5C" points="72.8,90.1 71.4,94.6 66.9,94.6 70.6,97.2 69.2,101.4 72.8,98.8 76.5,101.4 75.1,97.2 78.6,94.6 
	74.2,94.6 "/>
<polygon fill="#F5EA5C" points="91.3,95 89.9,99.5 85.4,99.5 89.2,102.1 87.8,106.3 91.3,103.7 95.1,106.3 93.7,102.1 97.2,99.5 
	92.7,99.5 "/>
<polygon fill="#F5EA5C" points="109.9,90.1 108.5,94.6 104,94.6 107.8,97.2 106.3,101.4 109.9,98.8 113.6,101.4 112.2,97.2 
	115.7,94.6 111.3,94.6 "/>
<polygon fill="#F5EA5C" points="123.5,76.5 122.1,81 117.6,81 121.4,83.5 120,87.8 123.5,85.2 127.2,87.8 125.8,83.5 129.4,81 
	124.9,81 "/>
<polygon fill="#F5EA5C" points="128.4,58 127.2,62.2 122.5,62.2 126.3,64.8 124.9,69 128.4,66.4 132.2,69 130.8,64.8 134.3,62.2 
	129.8,62.2 "/>
<polygon fill="#F5EA5C" points="123.5,39.4 122.1,43.6 117.6,43.6 121.4,46.2 120,50.4 123.5,47.9 127.2,50.4 125.8,46.2 
	129.4,43.6 124.9,43.6 "/>
<polygon fill="#F5EA5C" points="110.1,25.8 108.7,30 104.2,30 107.8,32.8 106.3,37.1 110.1,34.3 113.6,37.1 112.2,32.8 116,30 
	111.3,30 "/>
<g>
	<path fill="#25408F" d="M198.9,7.2h9.3v3.2h-6.1v3.1h6.1v3.1h-6.1v4.5h6.1v3.2h-9.3V7.2z"/>
	<path fill="#25408F" d="M211,11.7h3.2v6.1c0,1.2,0.1,2,0.2,2.5c0.2,0.5,0.4,0.8,0.8,1.1c0.4,0.3,0.8,0.4,1.3,0.4
		c0.5,0,1-0.1,1.3-0.4c0.4-0.2,0.6-0.6,0.8-1.1c0.1-0.4,0.2-1.1,0.2-2.3v-6.2h3.2v5.4c0,2.2-0.2,3.7-0.5,4.5c-0.4,1-1.1,1.8-1.9,2.3
		c-0.8,0.5-1.9,0.8-3.2,0.8c-1.4,0-2.5-0.3-3.4-0.9c-0.9-0.6-1.5-1.5-1.8-2.6c-0.2-0.8-0.4-2.2-0.4-4.2V11.7z"/>
	<path fill="#25408F" d="M224.5,11.7h2.7v1.6c0.3-0.6,0.7-1.1,1.2-1.4c0.5-0.3,1-0.5,1.6-0.5c0.4,0,0.8,0.1,1.3,0.3l-1,2.7
		c-0.4-0.2-0.7-0.3-0.9-0.3c-0.5,0-0.9,0.3-1.2,0.9c-0.3,0.6-0.5,1.8-0.5,3.6l0,0.6v5.1h-3.2V11.7z"/>
	<path fill="#25408F" d="M238.8,11.4c1.2,0,2.3,0.3,3.4,0.9c1.1,0.6,1.9,1.4,2.5,2.4c0.6,1,0.9,2.1,0.9,3.3c0,1.2-0.3,2.3-0.9,3.3
		c-0.6,1-1.4,1.9-2.4,2.4c-1,0.6-2.2,0.9-3.4,0.9c-1.8,0-3.4-0.6-4.6-1.9c-1.3-1.3-1.9-2.9-1.9-4.7c0-2,0.7-3.6,2.2-4.9
		C235.7,11.9,237.2,11.4,238.8,11.4z M238.9,14.4c-1,0-1.8,0.3-2.5,1c-0.7,0.7-1,1.6-1,2.6c0,1.1,0.3,2,1,2.7c0.6,0.7,1.5,1,2.5,1
		s1.8-0.3,2.5-1c0.7-0.7,1-1.6,1-2.7c0-1.1-0.3-2-1-2.6C240.7,14.7,239.9,14.4,238.9,14.4z"/>
	<path fill="#25408F" d="M251.3,11.7v1.4c0.6-0.6,1.2-1,1.9-1.3s1.4-0.4,2.1-0.4c1.7,0,3.1,0.6,4.2,1.9c1.2,1.2,1.7,2.8,1.7,4.8
		c0,1.9-0.6,3.5-1.8,4.7c-1.2,1.3-2.6,1.9-4.2,1.9c-0.7,0-1.4-0.1-2-0.4c-0.6-0.3-1.3-0.7-1.9-1.3v6h-3.2V11.7H251.3z M254.6,14.3
		c-1,0-1.8,0.3-2.5,1c-0.7,0.7-1,1.6-1,2.7c0,1.1,0.3,2,1,2.7s1.5,1,2.5,1c1,0,1.8-0.4,2.5-1.1c0.7-0.7,1-1.6,1-2.7
		c0-1.1-0.3-2-1-2.7C256.5,14.6,255.6,14.3,254.6,14.3z"/>
	<path fill="#25408F" d="M276.6,18.9h-10.2c0.1,0.9,0.5,1.6,1.2,2.1c0.6,0.5,1.5,0.8,2.4,0.8c1.2,0,2.2-0.4,3.1-1.2l2.7,1.3
		c-0.7,0.9-1.5,1.6-2.4,2.1c-0.9,0.5-2,0.7-3.3,0.7c-2,0-3.6-0.6-4.9-1.9c-1.2-1.3-1.9-2.8-1.9-4.7c0-1.9,0.6-3.5,1.9-4.8
		c1.2-1.3,2.8-1.9,4.7-1.9c2,0,3.6,0.6,4.9,1.9c1.2,1.3,1.9,3,1.9,5.1L276.6,18.9z M273.4,16.4c-0.2-0.7-0.6-1.3-1.2-1.7
		c-0.6-0.4-1.3-0.7-2.2-0.7c-0.9,0-1.7,0.2-2.3,0.7c-0.4,0.3-0.8,0.9-1.2,1.6H273.4z"/>
	<path fill="#25408F" d="M288.5,11.7h3.2v12.7h-3.2V23c-0.6,0.6-1.2,1-1.9,1.3c-0.6,0.3-1.3,0.4-2,0.4c-1.6,0-3.1-0.6-4.2-1.9
		c-1.2-1.3-1.8-2.8-1.8-4.7c0-2,0.6-3.6,1.7-4.8c1.2-1.3,2.6-1.9,4.2-1.9c0.8,0,1.5,0.1,2.1,0.4s1.3,0.7,1.8,1.3V11.7z M285.1,14.3
		c-1,0-1.8,0.3-2.4,1c-0.6,0.7-1,1.6-1,2.7c0,1.1,0.3,2,1,2.7c0.7,0.7,1.5,1.1,2.4,1.1c1,0,1.8-0.4,2.5-1s1-1.6,1-2.7
		c0-1.1-0.3-2-1-2.7C287,14.6,286.1,14.3,285.1,14.3z"/>
	<path fill="#25408F" d="M294.9,11.7h3.2V13c0.7-0.6,1.4-1,2-1.3c0.6-0.2,1.2-0.4,1.8-0.4c1.3,0,2.3,0.4,3.2,1.3
		c0.7,0.7,1.1,1.8,1.1,3.3v8.4h-3.1v-5.5c0-1.5-0.1-2.5-0.2-3c-0.1-0.5-0.4-0.9-0.7-1.1c-0.3-0.3-0.8-0.4-1.2-0.4
		c-0.6,0-1.2,0.2-1.7,0.6c-0.5,0.4-0.8,1-1,1.8c-0.1,0.4-0.1,1.3-0.1,2.6v5.1h-3.2V11.7z"/>
</g>
<g>
	<path fill="#25408F" d="M198.9,39h3.1l7.3,11.3V39h3.3v17.1h-3.1l-7.3-11.2v11.2h-3.3V39z"/>
	<path fill="#25408F" d="M228.9,50.7h-10.2c0.1,0.9,0.5,1.6,1.2,2.1c0.6,0.5,1.5,0.8,2.4,0.8c1.2,0,2.2-0.4,3.1-1.2l2.7,1.3
		c-0.7,0.9-1.5,1.6-2.4,2.1c-0.9,0.5-2,0.7-3.3,0.7c-2,0-3.6-0.6-4.9-1.9c-1.2-1.3-1.9-2.8-1.9-4.7c0-1.9,0.6-3.5,1.9-4.8
		c1.2-1.3,2.8-1.9,4.7-1.9c2,0,3.6,0.6,4.9,1.9c1.2,1.3,1.9,3,1.9,5.1L228.9,50.7z M225.7,48.2c-0.2-0.7-0.6-1.3-1.2-1.7
		c-0.6-0.4-1.3-0.7-2.2-0.7c-0.9,0-1.7,0.2-2.3,0.7c-0.4,0.3-0.8,0.9-1.2,1.6H225.7z"/>
	<path fill="#25408F" d="M232.7,38.2c0.6,0,1,0.2,1.4,0.6c0.4,0.4,0.6,0.9,0.6,1.5c0,0.6-0.2,1-0.6,1.4c-0.4,0.4-0.9,0.6-1.4,0.6
		c-0.6,0-1-0.2-1.4-0.6c-0.4-0.4-0.6-0.9-0.6-1.5c0-0.6,0.2-1,0.6-1.4S232.1,38.2,232.7,38.2z M231.1,43.5h3.2v12.7h-3.2V43.5z"/>
	<path fill="#25408F" d="M246.5,43.5h3.2v10.8c0,2.1-0.4,3.7-1.3,4.7c-1.2,1.4-2.9,2-5.2,2c-1.2,0-2.3-0.2-3.1-0.5
		c-0.8-0.3-1.6-0.8-2.1-1.4c-0.6-0.6-1-1.3-1.3-2.2h3.5c0.3,0.4,0.7,0.6,1.2,0.8c0.5,0.2,1.1,0.3,1.7,0.3c0.9,0,1.5-0.1,2.1-0.4
		s0.9-0.6,1.1-1c0.2-0.4,0.3-1.1,0.3-2.2c-0.6,0.6-1.1,1-1.8,1.2c-0.6,0.2-1.3,0.4-2.1,0.4c-1.7,0-3.1-0.6-4.3-1.8
		c-1.2-1.2-1.8-2.8-1.8-4.7c0-2,0.6-3.6,1.9-4.8c1.1-1.1,2.5-1.6,4-1.6c0.7,0,1.4,0.1,2.1,0.4c0.6,0.3,1.3,0.7,1.9,1.3V43.5z
		 M243.2,46.1c-1,0-1.8,0.3-2.5,1c-0.6,0.7-1,1.5-1,2.5c0,1.1,0.3,1.9,1,2.6c0.7,0.7,1.5,1,2.5,1c1,0,1.8-0.3,2.4-1
		c0.6-0.7,1-1.5,1-2.6c0-1.1-0.3-1.9-1-2.6C245.1,46.4,244.3,46.1,243.2,46.1z"/>
	<path fill="#25408F" d="M252.9,38.6h3.2v6.2c0.6-0.5,1.2-0.9,1.9-1.2c0.6-0.3,1.3-0.4,1.9-0.4c1.3,0,2.3,0.4,3.2,1.3
		c0.7,0.8,1.1,1.9,1.1,3.3v8.4H261v-5.5c0-1.5-0.1-2.5-0.2-3c-0.1-0.5-0.4-0.9-0.7-1.2c-0.3-0.3-0.8-0.4-1.3-0.4
		c-0.6,0-1.2,0.2-1.7,0.6c-0.5,0.4-0.8,1-1,1.7c-0.1,0.4-0.1,1.2-0.1,2.6v5.1h-3.2V38.6z"/>
	<path fill="#25408F" d="M270.4,38.6v6.3c0.6-0.6,1.2-1,1.9-1.3c0.7-0.3,1.4-0.4,2.1-0.4c1.7,0,3.1,0.6,4.2,1.9
		c1.2,1.2,1.7,2.8,1.7,4.8c0,1.9-0.6,3.5-1.8,4.7c-1.2,1.3-2.6,1.9-4.2,1.9c-0.7,0-1.4-0.1-2-0.4c-0.6-0.3-1.3-0.7-1.9-1.3v1.3h-3.2
		V38.6H270.4z M273.7,46.1c-1,0-1.8,0.3-2.5,1c-0.7,0.7-1,1.6-1,2.7c0,1.1,0.3,2,1,2.7c0.7,0.7,1.5,1,2.5,1c1,0,1.8-0.4,2.5-1.1
		c0.7-0.7,1-1.6,1-2.7c0-1.1-0.3-2-1-2.7C275.5,46.4,274.7,46.1,273.7,46.1z"/>
	<path fill="#25408F" d="M288.9,43.1c1.2,0,2.3,0.3,3.4,0.9c1.1,0.6,1.9,1.4,2.5,2.4c0.6,1,0.9,2.1,0.9,3.3c0,1.2-0.3,2.3-0.9,3.3
		c-0.6,1-1.4,1.9-2.4,2.4c-1,0.6-2.2,0.9-3.4,0.9c-1.8,0-3.4-0.6-4.6-1.9c-1.3-1.3-1.9-2.9-1.9-4.7c0-2,0.7-3.6,2.2-4.9
		C285.8,43.7,287.2,43.1,288.9,43.1z M288.9,46.1c-1,0-1.8,0.3-2.5,1c-0.7,0.7-1,1.6-1,2.6c0,1.1,0.3,2,1,2.7c0.6,0.7,1.5,1,2.5,1
		c1,0,1.8-0.3,2.5-1c0.7-0.7,1-1.6,1-2.7c0-1.1-0.3-2-1-2.6C290.8,46.5,289.9,46.1,288.9,46.1z"/>
	<path fill="#25408F" d="M298.2,43.5h3.2v6.1c0,1.2,0.1,2,0.2,2.5c0.2,0.5,0.4,0.8,0.8,1.1c0.4,0.3,0.8,0.4,1.3,0.4s1-0.1,1.3-0.4
		c0.4-0.2,0.6-0.6,0.8-1.1c0.1-0.4,0.2-1.1,0.2-2.3v-6.2h3.2v5.4c0,2.2-0.2,3.7-0.5,4.5c-0.4,1-1.1,1.8-1.9,2.3
		c-0.8,0.5-1.9,0.8-3.2,0.8c-1.4,0-2.5-0.3-3.4-0.9c-0.9-0.6-1.5-1.5-1.8-2.6c-0.2-0.8-0.4-2.2-0.4-4.2V43.5z"/>
	<path fill="#25408F" d="M311.7,43.5h2.7V45c0.3-0.6,0.7-1.1,1.2-1.4c0.5-0.3,1-0.5,1.6-0.5c0.4,0,0.8,0.1,1.3,0.3l-1,2.7
		c-0.4-0.2-0.7-0.3-0.9-0.3c-0.5,0-0.9,0.3-1.2,0.9s-0.5,1.8-0.5,3.6l0,0.6v5.1h-3.2V43.5z"/>
	<path fill="#25408F" d="M320.1,38.6h3.2v6.2c0.6-0.5,1.2-0.9,1.9-1.2c0.6-0.3,1.3-0.4,1.9-0.4c1.3,0,2.3,0.4,3.2,1.3
		c0.7,0.8,1.1,1.9,1.1,3.3v8.4h-3.1v-5.5c0-1.5-0.1-2.5-0.2-3c-0.1-0.5-0.4-0.9-0.7-1.2c-0.3-0.3-0.8-0.4-1.3-0.4
		c-0.6,0-1.2,0.2-1.7,0.6c-0.5,0.4-0.8,1-1,1.7c-0.1,0.4-0.1,1.2-0.1,2.6v5.1h-3.2V38.6z"/>
	<path fill="#25408F" d="M340.3,43.1c1.2,0,2.3,0.3,3.4,0.9c1.1,0.6,1.9,1.4,2.5,2.4c0.6,1,0.9,2.1,0.9,3.3c0,1.2-0.3,2.3-0.9,3.3
		c-0.6,1-1.4,1.9-2.4,2.4c-1,0.6-2.2,0.9-3.4,0.9c-1.8,0-3.4-0.6-4.6-1.9c-1.3-1.3-1.9-2.9-1.9-4.7c0-2,0.7-3.6,2.2-4.9
		C337.2,43.7,338.7,43.1,340.3,43.1z M340.4,46.1c-1,0-1.8,0.3-2.5,1c-0.7,0.7-1,1.6-1,2.6c0,1.1,0.3,2,1,2.7c0.6,0.7,1.5,1,2.5,1
		s1.8-0.3,2.5-1c0.7-0.7,1-1.6,1-2.7c0-1.1-0.3-2-1-2.6C342.2,46.5,341.4,46.1,340.4,46.1z"/>
	<path fill="#25408F" d="M355.6,43.1c1.2,0,2.3,0.3,3.4,0.9c1.1,0.6,1.9,1.4,2.5,2.4c0.6,1,0.9,2.1,0.9,3.3c0,1.2-0.3,2.3-0.9,3.3
		c-0.6,1-1.4,1.9-2.4,2.4c-1,0.6-2.2,0.9-3.4,0.9c-1.8,0-3.4-0.6-4.6-1.9c-1.3-1.3-1.9-2.9-1.9-4.7c0-2,0.7-3.6,2.2-4.9
		C352.5,43.7,353.9,43.1,355.6,43.1z M355.6,46.1c-1,0-1.8,0.3-2.5,1c-0.7,0.7-1,1.6-1,2.6c0,1.1,0.3,2,1,2.7c0.6,0.7,1.5,1,2.5,1
		s1.8-0.3,2.5-1c0.7-0.7,1-1.6,1-2.7c0-1.1-0.3-2-1-2.6C357.5,46.5,356.7,46.1,355.6,46.1z"/>
	<path fill="#25408F" d="M374.2,38.6h3.2v17.5h-3.2v-1.3c-0.6,0.6-1.2,1-1.9,1.3c-0.6,0.3-1.3,0.4-2,0.4c-1.6,0-3.1-0.6-4.2-1.9
		c-1.2-1.3-1.8-2.8-1.8-4.7c0-2,0.6-3.6,1.7-4.8c1.2-1.3,2.6-1.9,4.2-1.9c0.8,0,1.5,0.1,2.1,0.4c0.7,0.3,1.3,0.7,1.8,1.3V38.6z
		 M370.9,46.1c-1,0-1.8,0.3-2.4,1c-0.6,0.7-1,1.6-1,2.7c0,1.1,0.3,2,1,2.7c0.7,0.7,1.5,1.1,2.4,1.1c1,0,1.8-0.4,2.5-1
		c0.7-0.7,1-1.6,1-2.7c0-1.1-0.3-2-1-2.7C372.7,46.4,371.9,46.1,370.9,46.1z"/>
</g>
<g>
	<path fill="#25408F" d="M198.7,70.8h3.2v17.1h-3.2V70.8z"/>
	<path fill="#25408F" d="M205.3,75.2h3.2v1.3c0.7-0.6,1.4-1,2-1.3c0.6-0.2,1.2-0.4,1.8-0.4c1.3,0,2.3,0.4,3.2,1.3
		c0.7,0.7,1.1,1.8,1.1,3.3v8.4h-3.1v-5.5c0-1.5-0.1-2.5-0.2-3c-0.1-0.5-0.4-0.9-0.7-1.1c-0.3-0.3-0.8-0.4-1.2-0.4
		c-0.6,0-1.2,0.2-1.7,0.6c-0.5,0.4-0.8,1-1,1.8c-0.1,0.4-0.1,1.3-0.1,2.6v5.1h-3.2V75.2z"/>
	<path fill="#25408F" d="M227.3,77l-2,2c-0.8-0.8-1.5-1.2-2.2-1.2c-0.4,0-0.6,0.1-0.8,0.2c-0.2,0.2-0.3,0.3-0.3,0.6
		c0,0.2,0.1,0.3,0.2,0.5c0.1,0.1,0.4,0.3,0.9,0.6l1.2,0.6c1.2,0.6,2.1,1.2,2.5,1.9c0.5,0.6,0.7,1.4,0.7,2.2c0,1.1-0.4,2.1-1.2,2.8
		c-0.8,0.8-1.9,1.1-3.3,1.1c-1.8,0-3.3-0.7-4.4-2.2l2-2.1c0.4,0.4,0.8,0.8,1.3,1.1c0.5,0.3,0.9,0.4,1.3,0.4c0.4,0,0.8-0.1,1-0.3
		c0.3-0.2,0.4-0.4,0.4-0.7c0-0.5-0.5-1-1.4-1.4l-1.1-0.5c-2-1-3.1-2.3-3.1-3.9c0-1,0.4-1.9,1.2-2.6c0.8-0.7,1.8-1.1,3-1.1
		c0.8,0,1.6,0.2,2.3,0.5C226.2,75.8,226.8,76.3,227.3,77z"/>
	<path fill="#25408F" d="M230.4,70.6h3.2v4.7h1.9v2.7h-1.9v9.9h-3.2v-9.9h-1.6v-2.7h1.6V70.6z"/>
	<path fill="#25408F" d="M236.4,75.2h2.7v1.6c0.3-0.6,0.7-1.1,1.2-1.4c0.5-0.3,1-0.5,1.6-0.5c0.4,0,0.8,0.1,1.3,0.3l-1,2.7
		c-0.4-0.2-0.7-0.3-0.9-0.3c-0.5,0-0.9,0.3-1.2,0.9c-0.3,0.6-0.5,1.8-0.5,3.6l0,0.6v5.1h-3.2V75.2z"/>
	<path fill="#25408F" d="M244.8,75.2h3.2v6.1c0,1.2,0.1,2,0.2,2.5c0.2,0.5,0.4,0.8,0.8,1.1c0.4,0.3,0.8,0.4,1.3,0.4
		c0.5,0,1-0.1,1.3-0.4c0.4-0.2,0.6-0.6,0.8-1.1c0.1-0.4,0.2-1.1,0.2-2.3v-6.2h3.2v5.4c0,2.2-0.2,3.7-0.5,4.5c-0.4,1-1.1,1.8-1.9,2.3
		c-0.8,0.5-1.9,0.8-3.2,0.8c-1.4,0-2.5-0.3-3.4-0.9c-0.9-0.6-1.5-1.5-1.8-2.6c-0.2-0.8-0.4-2.2-0.4-4.2V75.2z"/>
	<path fill="#25408F" d="M259.1,75.2h3.2v1.5c0.5-0.6,1.1-1,1.8-1.3c0.7-0.3,1.4-0.4,2.2-0.4c0.8,0,1.5,0.2,2.1,0.6
		c0.6,0.4,1.1,1,1.5,1.7c0.5-0.7,1.1-1.3,1.9-1.7c0.7-0.4,1.5-0.6,2.4-0.6c0.9,0,1.7,0.2,2.4,0.6c0.7,0.4,1.2,1,1.5,1.6
		c0.3,0.7,0.4,1.8,0.4,3.3v7.4h-3.2v-6.4c0-1.4-0.2-2.4-0.5-2.9c-0.4-0.5-0.9-0.8-1.6-0.8c-0.5,0-1,0.2-1.5,0.5
		c-0.4,0.3-0.8,0.7-1,1.3c-0.2,0.5-0.3,1.4-0.3,2.6v5.7h-3.2v-6.1c0-1.1-0.1-2-0.3-2.5c-0.2-0.5-0.4-0.9-0.8-1.1
		c-0.3-0.2-0.7-0.4-1.2-0.4c-0.5,0-1,0.2-1.4,0.5c-0.4,0.3-0.8,0.8-1,1.3c-0.2,0.6-0.3,1.5-0.3,2.7v5.6h-3.2V75.2z"/>
	<path fill="#25408F" d="M294.2,82.5H284c0.1,0.9,0.5,1.6,1.2,2.1c0.6,0.5,1.5,0.8,2.4,0.8c1.2,0,2.2-0.4,3.1-1.2l2.7,1.3
		c-0.7,0.9-1.5,1.6-2.4,2.1c-0.9,0.5-2,0.7-3.3,0.7c-2,0-3.6-0.6-4.9-1.9c-1.2-1.3-1.9-2.8-1.9-4.7c0-1.9,0.6-3.5,1.9-4.8
		c1.2-1.3,2.8-1.9,4.7-1.9c2,0,3.6,0.6,4.9,1.9c1.2,1.3,1.9,3,1.9,5.1L294.2,82.5z M291,80c-0.2-0.7-0.6-1.3-1.2-1.7
		c-0.6-0.4-1.3-0.7-2.2-0.7c-0.9,0-1.7,0.2-2.3,0.7c-0.4,0.3-0.8,0.9-1.2,1.6H291z"/>
	<path fill="#25408F" d="M296.7,75.2h3.2v1.3c0.7-0.6,1.4-1,2-1.3c0.6-0.2,1.2-0.4,1.8-0.4c1.3,0,2.3,0.4,3.2,1.3
		c0.7,0.7,1.1,1.8,1.1,3.3v8.4h-3.1v-5.5c0-1.5-0.1-2.5-0.2-3c-0.1-0.5-0.4-0.9-0.7-1.1c-0.3-0.3-0.8-0.4-1.2-0.4
		c-0.6,0-1.2,0.2-1.7,0.6c-0.5,0.4-0.8,1-1,1.8c-0.1,0.4-0.1,1.3-0.1,2.6v5.1h-3.2V75.2z"/>
	<path fill="#25408F" d="M311.4,70.6h3.2v4.7h1.9v2.7h-1.9v9.9h-3.2v-9.9h-1.6v-2.7h1.6V70.6z"/>
</g>
<g>
	<path fill="#25408F" d="M201.1,108H198c0.1-1.8,0.7-3.3,1.7-4.4c1.1-1.1,2.5-1.6,4.1-1.6c1,0,2,0.2,2.8,0.7
		c0.8,0.4,1.4,1.1,1.9,1.9c0.5,0.8,0.7,1.7,0.7,2.5c0,1-0.3,2.1-0.9,3.3c-0.6,1.2-1.6,2.6-3.2,4.2l-1.9,2h6.1v3h-11.9v-1.6l5.3-5.4
		c1.3-1.3,2.1-2.3,2.6-3.1c0.4-0.8,0.6-1.5,0.6-2.1c0-0.7-0.2-1.2-0.7-1.6c-0.4-0.4-1-0.6-1.7-0.6c-0.7,0-1.3,0.3-1.7,0.8
		C201.4,106.4,201.2,107.1,201.1,108z"/>
	<path fill="#25408F" d="M216.9,102.1c1.2,0,2.3,0.3,3.2,0.9c0.9,0.6,1.6,1.5,2.1,2.8c0.5,1.3,0.7,3,0.7,5.3c0,2.3-0.2,4-0.8,5.3
		c-0.5,1.3-1.2,2.2-2,2.8c-0.8,0.6-1.9,0.9-3.2,0.9c-1.3,0-2.4-0.3-3.2-0.9c-0.9-0.6-1.6-1.5-2.1-2.7c-0.5-1.2-0.7-2.9-0.7-5.2
		c0-3.1,0.5-5.4,1.5-6.8C213.5,102.9,215,102.1,216.9,102.1z M217,105.2c-0.6,0-1,0.2-1.5,0.5c-0.4,0.4-0.8,1-1,1.8
		c-0.2,0.9-0.3,2.1-0.3,3.8c0,2.2,0.3,3.7,0.8,4.5c0.5,0.8,1.2,1.2,2,1.2c0.8,0,1.4-0.4,1.9-1.2c0.6-0.9,0.8-2.5,0.8-4.7
		c0-2.2-0.3-3.8-0.8-4.7C218.5,105.6,217.8,105.2,217,105.2z"/>
	<path fill="#25408F" d="M227.6,102.5h4.9v17.1h-3.2v-14.1h-3.5L227.6,102.5z"/>
	<path fill="#25408F" d="M244.9,102.1h3.2v11h1.5v3h-1.5v3.5H245v-3.5h-7.5v-3L244.9,102.1z M245,113.1v-5.7l-3.9,5.7H245z"/>
	<path fill="#25408F" d="M252.4,111.8h5.9v3h-5.9V111.8z"/>
	<path fill="#25408F" d="M264.5,108h-3.2c0.1-1.8,0.7-3.3,1.7-4.4c1.1-1.1,2.5-1.6,4.1-1.6c1,0,2,0.2,2.8,0.7
		c0.8,0.4,1.4,1.1,1.9,1.9c0.5,0.8,0.7,1.7,0.7,2.5c0,1-0.3,2.1-0.9,3.3c-0.6,1.2-1.6,2.6-3.2,4.2l-1.9,2h6.1v3h-11.9v-1.6l5.3-5.4
		c1.3-1.3,2.1-2.3,2.6-3.1c0.4-0.8,0.6-1.5,0.6-2.1c0-0.7-0.2-1.2-0.7-1.6c-0.4-0.4-1-0.6-1.7-0.6c-0.7,0-1.3,0.3-1.7,0.8
		C264.8,106.4,264.5,107.1,264.5,108z"/>
	<path fill="#25408F" d="M280.3,102.1c1.2,0,2.3,0.3,3.2,0.9c0.9,0.6,1.6,1.5,2.1,2.8c0.5,1.3,0.7,3,0.7,5.3c0,2.3-0.2,4-0.8,5.3
		c-0.5,1.3-1.2,2.2-2,2.8c-0.8,0.6-1.9,0.9-3.2,0.9c-1.3,0-2.4-0.3-3.2-0.9c-0.9-0.6-1.6-1.5-2.1-2.7c-0.5-1.2-0.7-2.9-0.7-5.2
		c0-3.1,0.5-5.4,1.5-6.8C276.9,102.9,278.4,102.1,280.3,102.1z M280.4,105.2c-0.6,0-1,0.2-1.5,0.5c-0.4,0.4-0.8,1-1,1.8
		c-0.2,0.9-0.3,2.1-0.3,3.8c0,2.2,0.3,3.7,0.8,4.5c0.5,0.8,1.2,1.2,2,1.2c0.8,0,1.4-0.4,1.9-1.2c0.6-0.9,0.8-2.5,0.8-4.7
		c0-2.2-0.3-3.8-0.8-4.7C281.9,105.6,281.2,105.2,280.4,105.2z"/>
	<path fill="#25408F" d="M291.2,108H288c0.1-1.8,0.7-3.3,1.7-4.4c1.1-1.1,2.5-1.6,4.1-1.6c1,0,2,0.2,2.8,0.7
		c0.8,0.4,1.4,1.1,1.9,1.9c0.5,0.8,0.7,1.7,0.7,2.5c0,1-0.3,2.1-0.9,3.3c-0.6,1.2-1.6,2.6-3.2,4.2l-1.9,2h6.1v3h-11.9v-1.6l5.3-5.4
		c1.3-1.3,2.1-2.3,2.6-3.1c0.4-0.8,0.6-1.5,0.6-2.1c0-0.7-0.2-1.2-0.7-1.6c-0.4-0.4-1-0.6-1.7-0.6c-0.7,0-1.3,0.3-1.7,0.8
		C291.5,106.4,291.2,107.1,291.2,108z"/>
	<path fill="#25408F" d="M307,102.1c1.2,0,2.3,0.3,3.2,0.9c0.9,0.6,1.6,1.5,2.1,2.8c0.5,1.3,0.7,3,0.7,5.3c0,2.3-0.2,4-0.8,5.3
		c-0.5,1.3-1.2,2.2-2,2.8c-0.8,0.6-1.9,0.9-3.2,0.9c-1.3,0-2.4-0.3-3.2-0.9c-0.9-0.6-1.6-1.5-2.1-2.7c-0.5-1.2-0.7-2.9-0.7-5.2
		c0-3.1,0.5-5.4,1.5-6.8C303.6,102.9,305.1,102.1,307,102.1z M307.1,105.2c-0.6,0-1,0.2-1.5,0.5c-0.4,0.4-0.8,1-1,1.8
		c-0.2,0.9-0.3,2.1-0.3,3.8c0,2.2,0.3,3.7,0.8,4.5c0.5,0.8,1.2,1.2,2,1.2c0.8,0,1.4-0.4,1.9-1.2c0.6-0.9,0.8-2.5,0.8-4.7
		c0-2.2-0.3-3.8-0.8-4.7C308.6,105.6,307.9,105.2,307.1,105.2z"/>
</g>
</svg>
